{"glyphs":{"$":{"x_min":0,"x_max":524,"ha":524,"o":"m 216 -404 q 209 -403 204 -399 q 199 -395 198 -391 q 196 -386 197 -214 q 112 -208 51 -176 q 28 -164 17 -145 q 6 -127 6 -109 q 6 -106 6 -104 q 9 -72 29 -65 q 34 -63 39 -63 q 48 -63 54 -70 q 60 -77 60 -89 q 60 -90 60 -91 q 59 -101 57 -106 q 55 -112 53 -114 q 51 -116 51 -117 q 51 -117 52 -118 q 87 -147 178 -147 q 188 -147 198 -147 q 198 -89 199 -26 q 186 -22 174 -19 q 163 -16 144 -9 q 125 -2 110 5 q 96 13 79 25 q 62 37 51 50 q 39 63 32 82 q 25 101 25 122 q 25 122 25 122 q 25 151 41 177 q 57 203 84 223 q 111 243 141 257 q 171 271 204 281 q 206 377 209 409 q 212 442 219 448 q 236 465 247 454 q 258 444 262 408 q 263 392 264 296 q 268 296 273 297 q 293 299 311 299 q 378 299 417 269 q 457 239 459 201 q 459 197 459 193 q 459 158 440 133 q 421 108 397 103 q 394 103 393 103 q 383 103 381 118 q 381 119 381 121 q 381 127 383 132 q 386 137 390 137 l 390 137 q 406 137 420 153 q 433 170 433 188 q 433 191 433 194 q 429 215 401 231 q 373 247 325 247 q 307 247 287 244 q 277 243 264 239 q 263 141 262 16 q 274 13 303 9 q 332 4 346 1 q 360 -1 381 -6 q 401 -10 415 -14 q 428 -18 438 -24 q 479 -46 479 -84 q 479 -106 465 -128 q 451 -151 426 -168 q 364 -210 260 -215 q 257 -372 255 -382 q 249 -411 216 -404 z m 200 29 q 202 153 203 221 q 178 211 156 199 q 135 188 115 174 q 96 160 83 143 q 71 127 69 109 q 69 108 69 107 q 69 86 106 65 q 143 44 200 29 z m 262 -37 q 262 -92 261 -142 q 327 -134 376 -118 q 426 -102 427 -87 q 427 -87 427 -86 q 427 -81 421 -75 q 416 -70 402 -66 q 389 -61 377 -58 q 365 -54 344 -51 q 322 -47 310 -45 q 297 -43 274 -39 q 266 -38 262 -37 z"},"?":{"x_min":0,"x_max":493,"ha":493,"o":"m 130 -422 q 108 -407 102 -386 q 96 -366 108 -344 q 121 -320 143 -309 q 166 -298 187 -301 q 208 -304 224 -321 q 239 -338 239 -364 q 239 -384 228 -401 q 218 -418 202 -426 q 186 -434 166 -434 q 147 -434 130 -422 z m 145 -257 q 122 -249 111 -222 q 99 -196 103 -161 q 108 -121 132 -77 q 157 -34 216 38 q 286 123 313 169 q 341 215 344 254 q 348 284 345 295 q 342 306 325 323 q 309 339 300 343 q 291 347 268 344 q 239 341 212 321 q 186 301 167 268 q 143 227 152 137 q 154 108 142 94 q 129 80 100 81 q 71 81 48 103 q 26 124 15 157 q 4 190 6 232 q 8 273 24 312 q 41 352 74 384 q 107 417 148 434 q 189 452 233 457 q 276 462 318 451 q 360 439 391 412 q 449 361 449 282 q 449 221 421 163 q 393 105 309 -4 q 254 -77 237 -115 q 220 -154 221 -202 q 222 -233 216 -241 q 209 -250 185 -256 q 160 -261 145 -257 z"},"<":{"x_min":0,"x_max":430,"ha":430,"o":"m 221 -43 q 218 -42 211 -38 q 62 32 37 46 q 11 61 7 76 q 7 77 7 77 q 4 87 7 95 q 10 103 25 116 q 41 129 65 144 q 90 160 138 188 q 249 253 292 274 q 336 295 347 291 q 371 282 357 263 q 339 239 243 173 q 123 91 124 86 q 124 82 252 12 q 305 -17 344 -41 q 383 -64 385 -69 q 388 -78 379 -91 q 369 -104 358 -104 q 349 -104 221 -43 z"},"'":{"x_min":0,"x_max":153,"ha":153,"o":"m 84 448 q 110 428 109 393 q 107 359 80 331 q 63 313 47 311 q 31 308 24 320 q 20 326 23 332 q 26 337 39 347 l 60 365 l 43 366 q 27 367 16 380 q 6 392 6 409 q 6 424 13 436 q 21 448 32 454 q 44 459 58 458 q 72 457 84 448 z"},"=":{"x_min":0,"x_max":544,"ha":544,"o":"m 46 -63 q 20 -59 10 -46 q 0 -32 13 -20 q 22 -11 245 -3 q 468 4 483 -4 q 498 -12 500 -27 q 502 -42 489 -53 q 479 -61 283 -65 q 86 -70 46 -63 z m 46 55 q 20 59 10 73 q 0 86 13 99 q 22 108 245 116 q 468 123 483 115 q 498 107 500 92 q 502 77 489 66 q 479 58 283 53 q 86 48 46 55 z"},"a":{"x_min":0,"x_max":417,"ha":417,"o":"m 180 -19 q 164 -17 142 -25 q 95 -42 56 -82 q 36 -103 27 -121 q 19 -136 36 -138 q 51 -140 70 -130 q 91 -119 109 -102 q 149 -64 168 -39 q 174 -31 180 -19 z m 184 -84 q 164 -107 138 -132 q 111 -158 79 -172 q 47 -185 24 -183 q -12 -180 -21 -152 q -28 -124 -22 -93 q -16 -61 0 -31 q 14 -3 42 20 q 71 43 98 48 q 172 62 210 19 q 229 34 251 32 q 270 31 283 16 q 296 1 292 -19 q 286 -45 285 -74 q 283 -103 287 -122 q 291 -139 307 -142 q 322 -145 337 -133 q 352 -122 364 -106 q 377 -91 399 -58 q 421 -26 434 -7 q 439 1 449 1 q 459 2 465 -4 q 471 -11 470 -20 q 469 -29 463 -37 q 458 -44 449 -57 q 404 -121 383 -145 q 362 -169 336 -179 q 309 -189 290 -191 q 271 -193 246 -187 q 228 -181 211 -162 q 194 -144 188 -124 q 183 -109 184 -84 z"},"L":{"x_min":0,"x_max":421,"ha":421,"o":"m 229 366 q 232 404 243 430 q 255 456 273 457 q 287 458 297 448 q 307 439 312 423 q 318 408 320 393 q 323 379 323 367 q 324 324 313 13 q 303 -298 303 -303 q 418 -302 684 -312 q 951 -322 1031 -329 q 1056 -332 1059 -353 q 1063 -377 1040 -397 q 1014 -420 974 -417 q 811 -404 671 -397 q 532 -390 444 -388 q 356 -386 276 -387 q 196 -388 160 -390 q 124 -392 81 -395 q 37 -398 29 -399 q 9 -400 2 -383 q -6 -362 18 -341 q 29 -331 45 -323 q 87 -304 215 -304 q 214 -296 216 -246 q 217 -197 218 -120 q 219 -43 219 18 q 219 167 229 366 z"},"3":{"x_min":0,"x_max":716,"ha":716,"o":"m 262 -278 q 183 -267 118 -223 q 53 -180 35 -126 q 25 -96 29 -54 q 33 -13 48 3 q 63 19 87 19 q 111 19 116 3 q 118 -3 117 -13 q 116 -23 112 -29 q 93 -63 108 -97 q 122 -130 165 -152 q 199 -169 272 -170 q 346 -171 398 -156 q 477 -132 528 -94 q 579 -56 579 -21 q 579 -2 556 19 q 533 39 497 53 q 467 64 441 68 q 415 71 365 71 q 329 71 304 72 q 279 74 277 78 q 272 87 277 106 q 279 117 305 133 q 330 149 394 182 q 559 266 569 309 q 574 332 543 348 q 527 357 502 360 q 478 363 422 363 q 359 363 335 359 q 312 356 276 339 q 184 298 172 242 q 167 217 152 212 q 137 207 119 224 q 100 240 105 274 q 110 309 135 340 q 166 378 223 406 q 281 434 344 448 q 408 461 475 457 q 541 454 589 432 q 634 412 658 379 q 682 347 681 311 q 680 274 655 235 q 630 196 583 162 l 529 123 l 562 112 q 600 100 637 66 q 674 32 682 1 q 694 -43 679 -88 q 664 -133 626 -170 q 589 -207 531 -235 q 473 -263 403 -275 q 348 -284 331 -285 q 314 -285 262 -278 z"},"J":{"x_min":0,"x_max":1101,"ha":1101,"o":"m 992 360 q 982 356 964 349 q 946 343 896 329 q 847 316 804 310 q 762 304 711 304 q 659 304 606 311 q 553 317 511 335 q 469 353 454 381 q 444 399 459 413 q 469 423 507 412 q 586 388 769 391 q 834 392 901 411 q 968 429 992 447 q 1012 461 1036 456 q 1060 451 1064 431 q 1067 418 1063 406 q 1059 393 1054 386 l 1049 380 q 1060 361 1069 295 q 1077 229 1073 162 q 1069 104 1056 49 q 1042 -6 1015 -59 q 989 -112 952 -158 q 914 -205 862 -245 q 811 -285 748 -314 q 684 -344 604 -362 q 523 -381 431 -385 q 191 -396 76 -313 q 3 -261 1 -186 q -1 -119 53 -66 q 73 -46 99 -31 q 152 -2 229 17 q 307 35 379 40 q 451 44 512 41 q 573 38 602 27 q 623 19 635 9 q 648 -2 649 -11 q 649 -19 643 -26 q 637 -33 621 -36 q 604 -39 583 -37 q 550 -32 505 -31 q 459 -31 407 -33 q 355 -36 300 -46 q 244 -56 202 -71 q 165 -85 140 -102 q 116 -119 105 -138 q 94 -157 98 -176 q 101 -196 118 -214 q 136 -232 170 -248 q 204 -263 253 -274 q 361 -297 460 -289 q 559 -281 644 -248 q 728 -214 793 -164 q 857 -113 897 -51 q 984 86 993 279 q 995 328 992 360 z"},"V":{"x_min":0,"x_max":1083,"ha":1083,"o":"m 12 379 q -8 419 9 432 q 19 441 32 439 q 44 438 56 432 q 67 427 78 417 q 106 392 176 289 q 246 187 322 59 q 399 -69 442 -158 q 463 -200 482 -229 q 502 -258 526 -279 q 550 -301 575 -306 q 600 -311 631 -301 q 662 -292 697 -264 q 732 -236 774 -186 q 816 -137 863 -66 q 901 -9 933 51 q 966 111 985 155 q 1004 199 1022 251 q 1041 302 1048 326 q 1054 350 1064 385 q 1067 395 1068 399 q 1076 427 1098 447 q 1121 468 1131 449 q 1146 418 1110 296 q 1093 235 1057 153 q 1022 72 973 -19 q 924 -109 867 -191 q 809 -273 749 -334 q 688 -396 629 -418 q 569 -441 516 -413 q 489 -398 460 -370 q 430 -342 402 -308 q 374 -274 343 -229 q 312 -184 285 -141 q 259 -99 228 -45 q 198 9 175 52 q 153 94 125 149 q 98 203 81 237 q 64 271 42 316 q 21 362 12 379 z"},"\"":{"x_min":0,"x_max":267,"ha":267,"o":"m 84 448 q 110 428 109 393 q 107 359 80 331 q 63 313 47 311 q 31 308 24 320 q 20 326 23 332 q 26 337 39 347 l 60 365 l 43 366 q 27 367 16 380 q 6 392 6 409 q 6 424 13 436 q 21 448 32 454 q 44 459 58 458 q 72 457 84 448 z m 198 448 q 224 428 223 393 q 222 359 194 331 q 177 313 161 311 q 145 308 138 320 q 134 326 137 332 q 140 337 153 347 l 174 365 l 157 366 q 141 367 130 380 q 119 392 119 409 q 119 424 127 436 q 135 448 146 454 q 158 459 172 458 q 186 457 198 448 z"},"7":{"x_min":0,"x_max":591,"ha":591,"o":"m 126 -276 q 105 -256 105 -225 q 105 -195 126 -132 q 156 -41 208 58 q 259 157 327 248 l 377 317 l 335 317 q 286 317 210 332 q 134 347 93 364 q 56 381 42 395 q 28 409 28 432 q 28 452 46 457 q 64 461 107 452 q 169 438 278 435 q 387 432 455 441 q 513 449 525 448 q 537 447 548 433 q 566 412 562 394 q 558 376 531 351 q 496 319 439 232 q 383 146 331 44 q 279 -57 254 -131 q 223 -219 223 -237 q 223 -254 202 -275 q 182 -296 164 -296 q 157 -296 145 -290 q 134 -284 126 -276 z"},"S":{"x_min":0,"x_max":1121,"ha":1121,"o":"m 903 143 q 872 139 866 167 q 864 177 871 187 q 878 197 887 197 q 914 197 939 212 q 965 227 978 249 q 991 271 986 289 q 981 307 960 323 q 938 339 897 353 q 856 367 795 371 q 734 375 650 369 q 612 366 554 354 q 497 343 428 323 q 358 303 298 278 q 238 253 195 220 q 153 187 148 153 q 146 131 182 108 q 219 84 282 65 q 346 46 426 29 q 506 13 592 3 q 621 -1 686 -8 q 751 -16 785 -20 q 819 -24 866 -31 q 913 -38 945 -45 q 977 -52 999 -60 q 1053 -79 1076 -109 q 1100 -139 1093 -171 q 1087 -202 1055 -234 q 1023 -266 971 -291 q 867 -340 708 -358 q 548 -377 386 -362 q 225 -347 106 -304 q 75 -293 52 -278 q 30 -262 19 -246 q 8 -230 3 -216 q -1 -201 1 -188 q 5 -165 19 -149 q 33 -132 56 -127 q 86 -119 106 -131 q 127 -143 126 -168 q 126 -179 122 -188 q 119 -196 116 -199 q 112 -203 109 -206 q 106 -208 106 -209 q 106 -209 109 -212 q 151 -237 233 -248 q 316 -259 410 -258 q 504 -257 604 -248 q 705 -239 786 -225 q 867 -211 919 -194 q 972 -177 974 -162 q 976 -147 938 -134 q 899 -121 836 -111 q 772 -102 707 -94 q 643 -87 573 -80 q 503 -72 471 -67 q 468 -66 462 -66 q 437 -62 421 -59 q 406 -56 371 -49 q 336 -42 310 -35 q 284 -28 248 -16 q 212 -4 186 9 q 160 21 132 39 q 103 57 86 76 q 68 95 56 120 q 45 146 45 173 q 45 208 67 241 q 89 274 125 300 q 161 326 210 349 q 258 372 311 389 q 364 406 420 420 q 476 433 525 441 q 574 449 618 453 q 701 461 768 455 q 835 449 886 434 q 937 419 972 397 q 1008 375 1026 350 q 1045 325 1048 299 q 1051 268 1039 240 q 1027 212 1006 192 q 984 172 958 159 q 931 147 903 143 z"},"}":{"x_min":0,"x_max":291,"ha":291,"o":"m 12 -438 q 2 -426 8 -413 q 14 -400 36 -392 q 68 -380 85 -360 q 102 -340 111 -303 q 119 -267 123 -198 q 130 -89 143 -59 q 151 -40 151 -33 q 151 -26 143 -19 q 124 -4 115 50 q 106 103 106 203 q 106 311 98 350 q 91 389 67 409 q 58 417 52 426 q 47 436 48 442 q 51 459 75 458 q 99 458 121 440 q 144 421 155 397 q 167 372 173 329 q 179 287 183 203 q 188 90 199 43 q 209 -3 228 -3 q 246 -3 246 -17 q 247 -31 231 -64 q 218 -89 213 -116 q 207 -143 204 -192 q 202 -227 197 -263 q 192 -299 187 -316 q 180 -337 167 -358 q 154 -379 138 -396 q 122 -413 103 -426 q 85 -439 68 -445 q 51 -452 36 -450 q 21 -449 12 -438 z"},"Z":{"x_min":0,"x_max":1076,"ha":1076,"o":"m 242 -296 q 232 -304 211 -313 q 191 -322 163 -330 q 134 -338 107 -342 q 79 -346 53 -340 q 27 -334 11 -317 q -9 -293 8 -264 q 32 -224 105 -209 q 151 -200 209 -203 q 656 36 994 348 q 951 334 870 328 q 788 322 653 318 q 518 314 441 309 q 437 309 407 306 q 378 303 355 302 q 332 301 304 301 q 276 301 257 306 q 239 311 235 321 q 226 345 252 374 q 278 403 315 411 q 347 418 419 420 q 490 422 574 421 q 657 419 743 419 q 829 418 908 424 q 987 429 1032 443 q 1119 469 1156 449 q 1185 434 1161 394 q 1133 348 1039 256 q 946 163 837 70 q 727 -23 616 -102 q 504 -181 446 -203 q 454 -204 468 -207 q 483 -210 531 -218 q 578 -227 621 -233 q 664 -239 729 -248 q 794 -257 843 -261 q 893 -264 954 -268 q 1014 -271 1049 -265 q 1092 -262 1108 -263 q 1123 -264 1137 -268 q 1167 -279 1168 -307 q 1169 -338 1135 -363 q 1087 -397 1003 -390 q 956 -386 849 -369 q 742 -351 643 -334 q 543 -318 429 -306 q 314 -293 242 -296 z"},"x":{"x_min":0,"x_max":304,"ha":304,"o":"m 24 -101 q -9 3 1 55 q 4 72 22 84 q 40 96 58 94 q 76 92 88 78 q 99 64 99 42 q 99 18 102 -8 q 116 8 133 29 q 151 49 162 63 q 173 76 179 83 q 185 89 200 87 q 215 84 222 78 q 235 67 224 54 q 212 40 113 -68 q 118 -89 125 -104 q 139 -136 177 -120 q 201 -111 242 -79 q 283 -48 328 -5 q 334 1 343 1 q 352 1 358 -6 q 363 -12 363 -20 q 363 -29 357 -35 q 292 -98 249 -133 q 205 -169 176 -180 q 150 -189 130 -191 q 111 -192 86 -182 q 64 -173 43 -143 q 8 -182 -17 -211 q -22 -217 -31 -218 q -39 -218 -46 -213 q -52 -207 -53 -199 q -53 -190 -48 -183 q -18 -149 24 -101 z"},")":{"x_min":0,"x_max":221,"ha":221,"o":"m 91 427 q 137 377 157 292 q 177 208 177 66 q 177 -69 158 -172 q 139 -275 97 -365 q 78 -406 64 -422 q 49 -437 32 -434 q 9 -430 8 -413 q 6 -396 23 -360 q 63 -281 86 -137 q 110 7 102 123 q 94 225 74 293 q 54 362 18 411 q 7 424 6 431 q 4 438 11 446 q 26 462 46 457 q 67 452 91 427 z"},"&":{"x_min":0,"x_max":643,"ha":643,"o":"m 469 -416 l 386 -367 l 331 -396 q 293 -417 253 -425 q 214 -433 181 -430 q 147 -427 118 -414 q 88 -401 67 -380 q 46 -360 34 -333 q 22 -306 21 -276 q 19 -246 32 -211 q 44 -177 69 -144 l 92 -116 l 66 -69 q 36 -14 21 44 q 6 103 5 157 q 5 211 19 261 q 32 312 58 351 q 83 390 121 418 q 159 445 206 454 q 290 471 343 419 q 396 366 396 267 q 396 194 360 106 q 324 18 271 -42 l 233 -84 l 257 -125 q 267 -144 314 -196 q 362 -248 378 -254 q 387 -249 396 -218 q 404 -187 404 -161 q 404 -143 416 -126 q 427 -109 439 -109 q 456 -109 465 -130 q 474 -152 472 -186 q 469 -221 456 -258 q 449 -277 446 -292 q 443 -307 446 -309 q 452 -315 524 -355 q 570 -381 584 -393 q 597 -404 599 -419 q 601 -437 590 -451 q 579 -465 563 -464 q 554 -464 469 -416 z m 267 74 q 308 153 321 210 q 334 267 319 307 q 312 329 305 336 q 298 343 283 345 q 242 349 216 301 q 189 252 185 162 q 183 120 187 77 q 190 34 197 8 q 204 -18 212 -16 q 216 -14 232 12 q 248 38 267 74 z m 256 -348 q 296 -338 298 -334 q 300 -331 285 -321 q 283 -321 279 -318 q 257 -305 222 -271 q 187 -237 162 -210 q 138 -183 137 -183 q 129 -183 118 -213 q 107 -243 107 -266 q 107 -299 117 -317 q 127 -334 152 -345 q 177 -356 199 -356 q 220 -357 256 -348 z"},"_":{"x_min":0,"x_max":544,"ha":544,"o":"m 46 -274 q 20 -270 10 -257 q 0 -243 13 -231 q 22 -222 245 -214 q 468 -207 483 -214 q 498 -222 500 -238 q 502 -253 489 -263 q 479 -272 283 -276 q 86 -281 46 -274 z"},"v":{"x_min":0,"x_max":264,"ha":264,"o":"m 156 -83 q 179 -11 185 44 q 186 55 195 62 q 204 69 214 68 q 225 67 229 58 q 234 50 233 38 q 223 -49 192 -128 q 179 -161 155 -189 q 130 -217 111 -217 q 90 -217 62 -189 q 33 -162 21 -125 q -7 -43 3 49 q 5 62 22 73 q 38 84 65 81 q 85 78 93 66 q 102 54 100 41 q 92 -25 103 -86 q 106 -103 113 -124 q 120 -146 126 -146 q 136 -146 156 -83 z"},"O":{"x_min":0,"x_max":913,"ha":913,"o":"m 391 365 q 366 355 327 311 q 288 268 251 211 q 213 153 181 87 q 150 21 140 -28 q 134 -57 132 -84 q 131 -110 134 -139 q 137 -167 146 -192 q 154 -217 172 -241 q 190 -265 215 -283 q 241 -302 278 -316 q 316 -331 363 -338 q 409 -345 462 -335 q 514 -326 563 -303 q 613 -281 658 -246 q 704 -211 738 -170 q 772 -129 792 -80 q 813 -31 813 17 q 813 137 755 221 q 698 304 588 345 q 461 392 391 365 z m 364 448 q 386 456 419 457 q 452 458 493 451 q 533 445 578 429 q 623 414 666 392 q 709 369 749 336 q 788 302 819 263 q 849 223 867 170 q 885 117 886 59 q 887 -9 868 -72 q 850 -134 818 -184 q 786 -234 743 -278 q 700 -321 651 -352 q 603 -383 552 -405 q 502 -427 453 -437 q 404 -447 362 -447 q 271 -445 202 -420 q 133 -396 84 -341 q 33 -281 12 -196 q -9 -111 8 -4 q 17 58 48 126 q 78 193 124 256 q 169 318 232 370 q 296 422 364 448 z"},"(":{"x_min":0,"x_max":221,"ha":221,"o":"m 92 -403 q 46 -353 26 -269 q 6 -184 6 -42 q 6 93 25 196 q 44 299 86 389 q 104 429 119 445 q 134 461 151 458 q 173 453 175 436 q 177 419 159 384 q 120 305 96 161 q 73 16 81 -99 q 88 -202 108 -270 q 128 -338 165 -387 q 176 -401 177 -408 q 178 -414 171 -422 q 157 -438 137 -433 q 116 -428 92 -403 z"},"C":{"x_min":0,"x_max":953,"ha":953,"o":"m 583 215 q 591 202 584 190 q 577 178 548 153 q 532 139 526 120 q 520 102 529 84 q 538 67 562 61 q 621 45 690 80 q 751 111 779 161 q 814 224 772 277 q 753 301 718 319 q 661 351 595 363 q 529 375 462 365 q 394 355 332 327 q 271 298 218 247 q 164 195 131 127 q 111 86 105 43 q 99 1 107 -39 q 114 -79 136 -115 q 158 -152 190 -181 q 222 -211 268 -233 q 313 -255 366 -266 q 419 -277 484 -275 q 550 -273 620 -257 q 673 -244 723 -221 q 774 -197 812 -170 q 850 -142 876 -119 q 901 -97 919 -77 q 929 -66 933 -61 q 937 -57 945 -49 q 953 -41 957 -39 q 961 -37 968 -34 q 974 -32 979 -33 q 984 -34 991 -38 q 1024 -61 971 -122 q 962 -133 952 -143 q 943 -153 920 -174 q 897 -195 874 -212 q 851 -230 815 -252 q 779 -274 742 -291 q 706 -308 657 -323 q 608 -338 558 -345 q 507 -352 445 -351 q 383 -350 320 -338 q 279 -331 238 -314 q 197 -297 156 -270 q 116 -243 84 -206 q 52 -170 30 -123 q 7 -77 2 -21 q -3 35 11 101 q 19 141 43 183 q 67 225 102 266 q 138 307 186 342 q 235 378 290 404 q 346 431 412 444 q 478 458 546 454 q 617 450 676 429 q 736 409 775 378 q 814 347 838 308 q 863 269 868 228 q 872 187 858 145 q 844 103 811 68 q 778 34 737 11 q 696 -12 656 -21 q 617 -31 578 -28 q 539 -26 509 -13 q 479 -1 459 24 q 439 48 435 79 q 429 134 473 184 q 507 222 544 229 q 572 234 583 215 z"},"W":{"x_min":0,"x_max":1284,"ha":1284,"o":"m 141 415 q 140 408 136 371 q 132 334 130 303 q 128 272 126 228 q 124 183 126 136 q 128 89 133 46 q 143 -26 165 -94 q 186 -161 211 -207 q 235 -253 260 -281 q 285 -308 304 -308 q 329 -308 362 -283 q 396 -258 426 -219 q 456 -181 482 -139 q 508 -98 524 -62 q 540 -26 540 -9 q 540 53 562 141 q 585 229 613 273 q 649 331 674 324 q 689 320 690 294 q 690 287 688 280 q 678 231 671 158 q 665 86 667 5 q 669 -76 682 -124 q 693 -162 712 -192 q 731 -221 756 -239 q 781 -258 812 -261 q 843 -265 876 -254 q 909 -243 947 -211 q 984 -179 1021 -128 q 1046 -93 1071 -49 q 1096 -4 1123 54 q 1151 112 1168 149 q 1184 187 1214 255 q 1253 344 1283 395 q 1313 447 1342 475 q 1356 489 1368 492 q 1379 496 1386 490 q 1393 484 1396 475 q 1399 465 1396 452 q 1394 439 1387 428 q 1338 360 1298 279 q 1258 198 1176 11 q 1139 -74 1096 -139 q 1053 -205 1012 -244 q 972 -284 928 -309 q 884 -334 848 -343 q 812 -353 776 -353 q 754 -353 730 -344 q 705 -335 679 -316 q 652 -296 629 -269 q 606 -241 586 -200 q 567 -159 557 -111 q 557 -111 534 -158 q 463 -294 379 -347 q 309 -392 239 -364 q 181 -342 130 -282 q 80 -221 47 -134 q 13 -46 4 52 q -7 170 12 284 q 31 398 59 440 q 76 464 90 475 q 103 486 112 484 q 121 483 127 476 q 133 468 136 456 q 139 444 140 433 q 141 423 141 415 z"},"A":{"x_min":0,"x_max":965,"ha":965,"o":"m 649 422 q 659 396 703 262 q 747 128 779 41 q 786 21 793 2 q 834 2 859 0 q 877 -1 886 -4 q 896 -6 900 -10 q 903 -14 904 -19 q 905 -24 904 -31 q 903 -41 887 -49 q 871 -57 852 -59 q 843 -60 818 -62 q 856 -153 894 -230 q 933 -306 952 -332 q 976 -366 960 -386 q 954 -394 941 -393 q 929 -393 916 -383 q 898 -368 858 -314 q 819 -259 783 -189 q 760 -143 729 -67 q 615 -73 537 -80 q 511 -82 481 -85 q 452 -140 419 -186 q 387 -232 347 -273 q 307 -314 259 -342 q 211 -370 159 -379 q 127 -386 101 -381 q 76 -376 58 -366 q 39 -356 28 -340 q 16 -325 9 -312 q 3 -298 2 -287 q -3 -258 11 -228 q 25 -198 53 -183 q 73 -172 90 -173 q 107 -174 117 -184 q 127 -194 125 -207 q 124 -218 117 -225 q 111 -232 103 -235 q 96 -238 91 -244 q 85 -249 86 -257 q 86 -271 103 -280 q 120 -288 147 -280 q 180 -269 229 -222 q 277 -175 323 -102 q 215 -114 199 -112 q 174 -109 172 -85 q 170 -71 180 -60 q 191 -49 199 -47 q 247 -35 368 -23 q 373 -13 378 -2 q 460 175 540 412 q 549 438 572 449 q 595 461 618 453 q 641 445 649 422 z m 518 -11 q 616 -3 703 -1 q 644 156 614 261 l 611 253 q 573 111 518 -11 z"},"f":{"x_min":0,"x_max":261,"ha":261,"o":"m 21 2 q 26 57 31 86 q 36 116 53 145 q 71 174 88 184 q 121 204 161 205 q 202 205 227 184 q 245 170 251 146 q 257 121 251 101 q 241 62 231 49 q 221 36 208 38 q 197 40 192 48 q 187 56 187 64 q 188 72 189 78 q 198 113 179 124 q 163 133 146 118 q 130 104 127 79 q 118 17 116 -4 q 159 -6 197 -3 q 204 -3 209 -9 q 213 -16 214 -26 q 215 -36 211 -45 q 207 -54 199 -55 q 158 -58 109 -56 q 93 -186 88 -312 q 87 -334 70 -343 q 53 -352 38 -347 q 14 -339 9 -302 q -1 -232 16 -50 q 14 -50 13 -50 q 12 -49 11 -49 q 3 -49 -1 -41 q -4 -32 -4 -22 q -3 -12 1 -5 q 5 2 13 2 q 14 2 17 2 q 19 2 21 2 z"},"Q":{"x_min":0,"x_max":936,"ha":936,"o":"m 627 -208 q 709 -155 761 -79 q 813 -3 813 77 q 813 197 755 281 q 698 364 588 405 q 461 452 391 425 q 366 415 327 371 q 288 328 251 271 q 213 213 181 147 q 150 81 140 32 q 129 -19 132 -63 q 234 -39 343 -69 q 452 -98 597 -190 q 611 -198 627 -208 z m 511 -263 q 388 -186 306 -155 q 224 -124 147 -134 q 191 -251 363 -278 q 432 -288 511 -263 z m 605 -319 q 543 -353 479 -370 q 416 -387 362 -387 q 271 -385 202 -360 q 133 -336 84 -281 q 33 -221 12 -136 q -9 -51 8 56 q 17 118 48 186 q 78 253 124 316 q 169 378 232 430 q 296 482 364 508 q 386 516 419 517 q 452 518 493 511 q 533 505 578 489 q 623 474 666 452 q 709 429 749 396 q 788 362 819 323 q 849 283 867 230 q 885 177 886 119 q 887 5 838 -89 q 788 -183 704 -252 q 850 -328 967 -349 q 1075 -367 1132 -334 q 1157 -319 1156 -336 q 1156 -353 1131 -380 q 1127 -384 1123 -388 q 1113 -398 1100 -406 q 1087 -414 1068 -424 q 1048 -433 1026 -438 q 1004 -442 976 -444 q 948 -446 918 -440 q 777 -416 605 -319 z"},"w":{"x_min":0,"x_max":396,"ha":396,"o":"m 172 -158 l 171 -158 q 159 -188 138 -213 q 116 -238 98 -238 q 79 -238 54 -213 q 29 -188 18 -156 q 4 -117 1 -55 q -2 7 5 54 q 6 66 21 76 q 36 86 60 83 q 78 80 86 69 q 93 59 92 47 q 86 -2 86 -48 q 87 -94 91 -121 q 93 -135 100 -154 q 106 -174 112 -174 q 121 -174 139 -117 q 144 -100 149 -83 q 139 -26 146 35 q 147 48 164 60 q 181 71 207 67 q 228 64 236 52 q 244 41 243 27 q 235 -38 245 -100 q 248 -116 255 -138 q 262 -159 268 -159 q 278 -160 298 -96 q 322 -24 328 30 q 329 41 338 48 q 346 55 357 54 q 368 53 372 45 q 377 37 376 24 q 366 -63 334 -142 q 322 -174 297 -202 q 273 -231 253 -231 q 236 -231 211 -209 q 187 -188 172 -158 z"},"-":{"x_min":0,"x_max":448,"ha":448,"o":"m 12 406 q 1 419 10 433 q 24 456 272 458 q 324 459 349 457 q 374 455 385 450 q 397 444 401 433 q 407 412 396 405 q 379 394 280 393 q 252 393 204 393 q 88 393 54 395 q 19 398 12 406 z"},"E":{"x_min":0,"x_max":979,"ha":979,"o":"m 958 283 q 954 287 945 297 q 936 307 930 313 q 924 318 914 326 q 904 333 892 339 q 880 344 864 348 q 816 359 758 364 q 701 368 636 364 q 572 361 504 344 q 435 328 376 301 q 322 276 283 252 q 245 228 225 208 q 205 187 197 169 q 189 151 193 136 q 197 122 210 109 q 232 89 279 75 q 327 61 378 56 q 428 51 465 49 q 501 47 519 48 q 526 48 534 44 q 543 40 549 33 q 555 26 558 19 q 561 11 556 4 q 551 -4 537 -8 q 509 -16 470 -31 q 431 -45 381 -65 q 331 -86 284 -109 q 237 -132 199 -155 q 161 -178 142 -201 q 123 -224 132 -242 q 141 -258 192 -270 q 243 -282 320 -285 q 397 -287 481 -281 q 564 -276 648 -254 q 732 -232 787 -199 q 817 -180 837 -161 q 856 -142 863 -127 q 869 -112 869 -100 q 869 -87 865 -80 q 861 -72 854 -69 q 840 -61 838 -41 q 836 -22 852 -7 q 870 7 889 3 q 908 -1 922 -18 q 936 -34 947 -57 q 957 -80 958 -105 q 958 -130 951 -151 q 929 -201 879 -242 q 829 -284 764 -312 q 699 -340 621 -359 q 543 -377 465 -384 q 387 -391 311 -388 q 235 -384 174 -371 q 112 -357 69 -332 q 25 -307 11 -273 q -4 -238 2 -207 q 7 -176 26 -148 q 44 -121 72 -98 q 99 -76 128 -58 q 156 -40 181 -28 q 207 -16 222 -9 q 238 -3 238 -3 q 233 -3 221 1 q 209 4 193 12 q 177 21 160 32 q 142 43 127 59 q 112 75 100 93 q 88 111 85 134 q 81 157 86 181 q 91 204 111 233 q 130 262 163 291 q 223 344 294 380 q 364 417 431 433 q 498 450 566 455 q 635 461 695 453 q 754 446 808 433 q 861 420 900 401 q 939 383 963 364 q 987 344 992 327 q 996 308 990 295 q 983 282 974 280 q 964 279 958 283 z"},"s":{"x_min":0,"x_max":217,"ha":217,"o":"m 159 -26 q 146 -43 127 -34 q 118 -31 114 -21 q 109 -12 114 -5 q 114 -4 116 -2 q 117 0 118 1 q 118 2 119 4 q 119 6 119 7 q 118 10 116 13 q 113 17 108 17 q 102 17 98 13 q 94 9 94 4 q 94 -1 96 -5 q 98 -10 99 -14 q 101 -18 105 -23 q 109 -28 111 -31 q 114 -34 120 -39 q 126 -45 128 -47 q 131 -49 138 -55 q 144 -61 146 -62 q 174 -86 181 -118 q 188 -151 172 -176 q 163 -189 147 -201 q 131 -214 116 -218 q 93 -227 63 -221 q 33 -215 13 -196 q -8 -175 -12 -138 q -12 -129 -6 -120 q 1 -111 12 -111 q 25 -109 32 -116 q 40 -122 41 -134 q 42 -150 57 -153 q 72 -156 77 -146 q 79 -141 78 -133 q 77 -131 75 -128 q 74 -125 71 -121 q 67 -118 66 -116 q 64 -114 59 -109 q 53 -104 52 -102 q 18 -68 8 -34 q 5 -24 4 -11 q 4 2 8 17 q 11 32 19 45 q 26 58 41 69 q 56 80 77 85 q 100 92 129 82 q 158 72 168 52 q 172 43 174 31 q 176 19 172 4 q 169 -12 159 -26 z"},">":{"x_min":0,"x_max":430,"ha":430,"o":"m 170 -43 q 42 -104 33 -104 q 22 -104 12 -91 q 3 -78 7 -69 q 8 -64 47 -41 q 86 -17 139 12 q 267 82 268 86 q 268 91 149 173 q 46 244 32 267 q 23 283 44 291 q 56 295 99 274 q 142 253 253 188 q 301 160 326 144 q 351 129 366 116 q 381 103 384 95 q 387 87 384 77 q 384 77 384 76 q 381 61 355 46 q 329 32 181 -38 q 173 -42 170 -43 z"},"l":{"x_min":0,"x_max":147,"ha":147,"o":"m 25 257 q 34 311 52 332 q 69 353 88 351 q 106 348 117 325 q 128 302 123 259 q 86 -12 79 -178 q 78 -201 62 -209 q 45 -218 30 -213 q 5 -205 1 -168 q -7 -111 3 41 q 14 193 25 257 z"},"8":{"x_min":0,"x_max":681,"ha":681,"o":"m 413 246 q 430 266 437 285 q 444 304 441 319 q 439 333 428 344 q 417 354 399 358 q 381 362 356 360 q 331 358 303 348 q 276 339 243 312 q 211 285 211 271 q 211 258 237 235 q 262 212 291 199 q 323 185 332 184 q 341 184 360 196 q 371 202 386 216 q 402 231 413 246 z m 445 -162 q 479 -151 515 -121 q 552 -91 552 -75 q 552 -54 518 -26 q 484 1 427 28 q 348 63 334 63 q 322 63 282 36 q 242 8 214 -21 q 188 -47 175 -77 q 162 -107 169 -124 q 179 -151 225 -167 q 271 -182 332 -181 q 393 -180 445 -162 z m 172 -277 q 89 -249 53 -194 q 17 -139 33 -66 q 42 -24 73 17 q 104 57 149 86 q 198 117 203 119 q 204 121 201 124 q 199 128 193 133 q 187 139 180 145 q 149 171 133 201 q 118 232 118 263 q 119 294 134 324 q 149 354 176 380 q 203 405 244 424 q 284 444 333 454 q 399 467 457 445 q 514 424 539 377 q 551 355 551 312 q 552 269 540 242 q 535 230 521 211 q 507 192 493 176 l 457 139 l 508 113 q 552 90 591 55 q 630 19 642 -9 q 653 -34 653 -69 q 653 -104 643 -129 q 623 -175 565 -217 q 507 -258 433 -279 q 385 -293 300 -292 q 215 -292 172 -277 z"},"\\":{"x_min":0,"x_max":575,"ha":575,"o":"m 16 449 q 28 461 47 458 q 67 455 78 440 q 92 421 253 144 q 468 -223 506 -299 q 538 -364 528 -377 q 524 -382 512 -384 q 503 -385 489 -369 q 474 -353 438 -298 q 402 -242 348 -155 q 294 -67 197 93 q 30 370 18 387 q 6 403 6 421 q 5 439 16 449 z"},"e":{"x_min":0,"x_max":293,"ha":293,"o":"m 162 -21 q 173 -7 165 3 q 154 16 124 1 q 113 -5 102 -20 q 91 -36 87 -55 q 134 -54 162 -21 z m 138 83 l 139 83 q 167 83 186 70 q 206 57 213 40 q 221 22 218 6 q 216 -13 205 -31 q 189 -58 158 -77 q 127 -96 87 -97 q 87 -98 87 -99 q 99 -123 122 -132 q 146 -140 168 -136 q 191 -131 211 -119 q 233 -106 262 -73 q 291 -41 312 -9 q 317 -2 326 0 q 334 2 341 -3 q 348 -8 350 -17 q 351 -25 347 -32 q 323 -66 286 -107 q 249 -148 216 -172 q 197 -186 175 -195 q 153 -204 125 -207 q 97 -210 70 -200 q 57 -196 43 -188 q 30 -179 16 -167 q 2 -154 -8 -136 q -17 -117 -19 -94 q -22 -68 -16 -43 q -11 -18 -1 -2 q 14 22 33 39 q 52 57 71 66 q 90 76 106 79 q 122 83 137 83 z"},"b":{"x_min":0,"x_max":297,"ha":297,"o":"m 105 -32 q 97 -48 94 -71 q 92 -94 97 -110 q 102 -126 115 -128 q 129 -130 139 -117 q 152 -99 154 -71 q 156 -43 147 -29 q 139 -14 126 -15 q 113 -16 105 -32 z m 78 -182 q 77 -205 60 -213 q 43 -221 29 -217 q 4 -208 -1 -171 q -8 -114 2 38 q 13 189 24 254 q 33 307 51 328 q 68 349 87 347 q 104 345 116 322 q 127 299 122 256 q 104 124 95 42 q 96 43 97 43 q 112 57 132 63 q 153 69 174 67 q 194 65 214 51 q 233 37 245 11 q 263 -27 256 -79 q 249 -132 221 -163 q 202 -184 175 -193 q 148 -202 122 -199 q 97 -196 78 -182 z"},"%":{"x_min":0,"x_max":524,"ha":524,"o":"m 149 275 q 151 296 135 306 q 119 315 96 306 q 76 299 75 286 q 73 273 91 257 q 107 240 127 246 q 146 253 149 275 z m 64 182 q 39 194 22 222 q 6 250 6 279 q 6 303 30 338 q 54 373 79 385 q 97 393 109 393 q 121 394 143 388 q 175 380 197 360 q 219 341 227 315 q 234 290 231 264 q 228 238 210 214 q 192 189 162 174 q 119 153 64 182 z m 12 -318 q 2 -309 12 -285 q 22 -262 66 -184 q 139 -57 270 152 q 401 362 412 370 q 426 381 437 381 q 448 381 461 366 q 474 352 474 339 q 474 327 334 106 q 195 -115 116 -228 q 71 -292 48 -312 q 26 -332 12 -318 z m 396 -238 q 398 -217 382 -208 q 366 -198 342 -207 q 323 -214 321 -227 q 320 -240 337 -257 q 354 -273 373 -267 q 393 -261 396 -238 z m 311 -332 q 286 -318 269 -291 q 252 -263 252 -234 q 252 -210 277 -175 q 301 -140 327 -128 q 344 -121 356 -120 q 368 -119 390 -125 q 422 -133 444 -153 q 466 -173 474 -198 q 482 -223 478 -249 q 475 -276 457 -300 q 438 -324 408 -339 q 366 -360 311 -332 z"},"m":{"x_min":0,"x_max":620,"ha":620,"o":"m 156 -47 q 136 -63 112 -99 q 89 -134 72 -167 q 56 -199 52 -203 q 48 -208 39 -212 q 30 -215 23 -213 q 8 -207 4 -192 q -1 -173 -1 -120 q -1 -67 0 -5 q 1 24 13 38 q 25 52 38 55 q 51 58 62 48 q 72 38 73 18 q 75 -18 72 -61 q 86 -29 114 9 q 143 47 164 64 q 178 76 195 81 q 212 86 229 82 q 247 78 259 64 q 279 41 284 -11 q 288 -57 285 -116 q 286 -114 304 -92 q 322 -71 329 -62 q 337 -53 351 -37 q 366 -21 375 -11 q 385 -2 392 3 q 409 14 428 12 q 446 11 460 -4 q 467 -11 471 -25 q 474 -39 473 -53 q 471 -95 474 -120 q 476 -136 487 -139 q 498 -142 511 -132 q 562 -92 638 -9 q 643 -3 652 -2 q 661 -2 667 -8 q 673 -14 674 -22 q 674 -31 668 -37 q 665 -41 658 -48 q 626 -84 607 -104 q 589 -123 561 -148 q 534 -173 515 -185 q 441 -229 411 -176 q 398 -152 390 -91 q 387 -73 386 -74 q 384 -74 384 -74 q 374 -88 355 -112 q 337 -136 327 -148 q 318 -161 305 -175 q 293 -189 283 -197 q 278 -201 269 -204 q 261 -207 248 -208 q 236 -208 224 -204 q 213 -201 202 -187 q 192 -173 187 -151 q 184 -139 181 -120 q 178 -102 176 -89 q 174 -76 171 -63 q 168 -51 164 -47 q 161 -42 156 -47 z"},"#":{"x_min":0,"x_max":747,"ha":747,"o":"m 407 -49 q 411 -43 416 -20 l 422 3 l 349 3 q 277 3 277 -7 q 277 -17 271 -36 q 268 -50 276 -52 q 284 -55 335 -55 q 363 -55 384 -53 q 406 -51 407 -49 z m 129 -297 q 116 -282 116 -260 q 116 -238 128 -199 q 141 -158 141 -156 q 141 -154 96 -154 q 51 -154 30 -143 q 8 -132 6 -108 q 3 -78 23 -67 q 43 -56 102 -53 q 124 -52 134 -52 q 144 -51 154 -50 q 163 -49 166 -46 q 169 -42 171 -39 q 173 -36 176 -28 q 180 -11 175 -8 q 171 -5 138 -5 q 93 -5 72 6 q 51 17 48 41 q 46 71 66 82 q 86 94 144 96 l 211 98 l 241 196 q 259 255 269 276 q 279 298 291 303 q 309 312 323 302 q 336 292 336 269 q 336 248 319 173 q 302 99 302 96 q 302 93 376 96 l 449 98 l 479 196 q 498 255 508 276 q 517 298 529 303 q 548 312 561 302 q 574 292 574 269 q 574 248 558 173 q 541 99 543 98 q 545 96 612 91 q 664 87 683 79 q 702 71 702 53 q 702 33 681 24 q 659 16 602 13 q 528 9 522 4 q 517 -1 511 -28 q 507 -48 510 -51 q 514 -55 538 -56 q 604 -57 632 -66 q 660 -76 660 -96 q 660 -119 634 -128 q 607 -137 534 -137 l 482 -138 l 467 -205 q 461 -233 452 -258 q 443 -284 436 -292 q 422 -309 402 -311 q 382 -312 367 -297 q 354 -282 354 -260 q 354 -238 366 -199 q 379 -158 379 -152 q 379 -149 359 -148 q 339 -146 311 -146 l 243 -146 l 235 -177 q 227 -208 221 -239 q 217 -262 206 -279 q 196 -296 183 -304 q 170 -312 156 -311 q 141 -309 129 -297 z"},",":{"x_min":0,"x_max":153,"ha":153,"o":"m 84 -139 q 110 -159 109 -194 q 107 -228 80 -257 q 63 -274 47 -277 q 31 -279 24 -267 q 20 -261 23 -256 q 26 -250 39 -240 l 60 -222 l 43 -221 q 27 -220 16 -208 q 6 -195 6 -177 q 6 -163 13 -151 q 21 -139 32 -133 q 44 -128 58 -129 q 72 -131 84 -139 z"},"n":{"x_min":0,"x_max":392,"ha":392,"o":"m 117 -68 q 109 -84 93 -121 q 77 -157 68 -175 q 59 -194 54 -200 q 49 -206 40 -209 q 31 -212 25 -209 q 9 -204 6 -189 q 1 -169 1 -117 q 0 -64 2 -2 q 2 27 14 41 q 27 55 39 58 q 53 61 63 51 q 74 41 75 22 q 77 -9 74 -45 q 83 -25 90 -11 q 97 3 108 21 q 118 38 130 52 q 142 65 156 74 q 178 88 201 86 q 224 83 242 66 q 256 52 262 24 q 269 -4 268 -31 q 264 -84 268 -115 q 269 -131 283 -134 q 297 -137 311 -126 q 324 -116 338 -101 q 352 -86 361 -74 q 370 -62 386 -41 q 402 -19 412 -6 q 417 1 426 1 q 435 1 442 -5 q 448 -11 448 -19 q 448 -28 443 -34 q 438 -40 423 -60 q 408 -81 401 -90 q 394 -99 381 -117 q 367 -134 358 -144 q 348 -154 336 -167 q 324 -180 314 -188 q 303 -196 294 -201 q 259 -219 222 -205 q 184 -191 171 -156 q 159 -126 153 -88 q 153 -82 152 -75 q 151 -68 150 -64 q 149 -61 149 -57 q 148 -53 147 -51 q 140 -41 132 -47 q 124 -53 117 -68 z"},"h":{"x_min":0,"x_max":403,"ha":403,"o":"m 74 -190 q 67 -202 53 -206 q 40 -210 29 -206 q 4 -198 -1 -161 q -8 -104 3 48 q 13 200 24 264 q 33 317 51 339 q 69 360 87 357 q 105 355 116 332 q 128 309 122 266 q 97 75 87 -42 q 131 52 173 80 q 196 94 218 92 q 241 90 259 72 q 273 58 280 31 q 287 3 285 -25 q 282 -77 285 -108 q 287 -124 301 -128 q 314 -131 328 -120 q 342 -109 356 -94 q 369 -79 379 -68 q 388 -56 404 -34 q 419 -13 429 0 q 434 7 443 7 q 452 7 459 1 q 465 -4 465 -13 q 466 -21 460 -28 q 456 -34 441 -54 q 426 -74 419 -84 q 412 -93 398 -111 q 384 -128 375 -138 q 366 -148 354 -161 q 342 -173 331 -182 q 321 -190 311 -195 q 277 -213 239 -199 q 202 -185 188 -149 q 177 -119 171 -82 q 170 -76 169 -69 q 168 -62 168 -58 q 167 -54 166 -51 q 165 -47 164 -44 q 157 -34 149 -40 q 142 -46 134 -62 q 127 -79 112 -111 q 97 -144 88 -163 q 79 -182 74 -190 z"},"z":{"x_min":0,"x_max":331,"ha":331,"o":"m 75 -39 q 43 -37 24 -24 q 6 -11 -3 17 q -6 24 -7 32 q -8 41 -6 52 q -4 64 3 71 q 11 79 21 77 q 31 75 36 61 q 44 37 84 34 q 92 34 100 34 q 108 34 114 34 q 121 34 128 36 q 135 37 140 38 q 145 39 152 42 q 160 44 165 46 q 169 47 178 50 q 187 53 192 55 q 210 61 231 61 q 252 61 273 55 q 293 49 307 31 q 321 13 321 -14 q 321 -19 316 -25 q 312 -31 308 -35 q 303 -38 294 -45 q 285 -52 281 -55 q 264 -68 231 -91 q 197 -114 172 -130 l 147 -146 q 148 -146 151 -145 q 154 -144 164 -143 q 174 -142 185 -142 q 255 -143 290 -167 q 296 -171 298 -174 q 301 -177 303 -181 q 304 -186 301 -190 q 295 -198 278 -208 q 261 -217 254 -213 q 227 -194 157 -195 q 123 -195 66 -201 q 8 -208 -4 -207 q -29 -206 -35 -189 q -41 -176 -29 -162 q -18 -148 16 -124 q 21 -122 81 -82 q 142 -43 167 -23 q 170 -20 167 -22 q 128 -36 106 -39 q 90 -41 75 -39 z"},"B":{"x_min":0,"x_max":1393,"ha":1393,"o":"m 918 -78 q 898 -81 879 -83 q 860 -84 852 -85 l 843 -85 q 834 -224 819 -260 q 812 -279 805 -284 q 798 -288 779 -288 q 757 -289 748 -286 q 738 -282 735 -264 q 731 -244 729 -199 q 728 -154 728 -119 l 728 -85 q 605 -85 542 -26 q 526 -10 527 2 q 529 21 563 10 q 594 -1 637 -6 q 679 -12 707 -12 l 734 -12 q 734 98 739 175 q 741 196 750 214 q 759 233 772 244 q 784 256 794 263 q 804 269 813 274 q 818 276 823 277 q 828 278 836 275 q 844 272 849 263 q 855 254 858 232 q 862 211 861 179 l 850 -1 q 892 -3 1011 22 q 1092 40 1161 76 q 1231 113 1271 159 q 1310 205 1305 248 q 1304 260 1296 274 q 1287 288 1271 302 q 1254 317 1231 330 q 1207 344 1174 354 q 1141 365 1102 372 q 1063 378 1012 379 q 961 379 905 373 q 849 367 779 351 q 710 336 636 310 q 359 217 179 -9 q 91 -121 46 -234 l 41 -247 q 40 -249 39 -252 q 37 -255 32 -259 q 26 -263 19 -262 q 16 -262 15 -262 q 14 -262 11 -261 q 8 -259 7 -258 q 6 -257 3 -254 q 1 -252 1 -248 q 0 -245 0 -240 q 0 -234 2 -228 q 12 -178 36 -124 q 59 -69 98 -11 q 137 48 187 105 q 237 162 305 216 q 372 269 449 313 q 526 357 621 391 q 717 424 820 441 q 916 456 999 457 q 1081 458 1140 448 q 1198 437 1246 418 q 1293 399 1323 376 q 1352 353 1372 327 q 1392 301 1399 279 q 1407 256 1407 236 q 1407 195 1389 156 q 1371 117 1335 80 q 1299 44 1241 12 q 1182 -19 1107 -41 q 1134 -50 1156 -62 q 1178 -73 1198 -91 q 1218 -108 1228 -128 q 1238 -148 1236 -176 q 1235 -203 1219 -234 q 1198 -274 1156 -306 q 1114 -337 1063 -355 q 1012 -373 955 -383 q 897 -393 842 -394 q 787 -395 740 -391 q 693 -387 660 -377 q 611 -364 571 -336 q 532 -308 525 -279 q 523 -271 522 -264 q 522 -258 524 -255 q 526 -252 528 -251 q 530 -249 534 -249 q 538 -250 541 -251 q 544 -251 549 -254 q 554 -256 557 -258 q 559 -259 564 -261 q 566 -262 566 -263 q 581 -271 613 -281 q 644 -290 696 -298 q 747 -306 803 -307 q 858 -308 925 -295 q 992 -283 1051 -256 q 1142 -212 1131 -166 q 1121 -128 1046 -102 q 991 -83 918 -78 z"},"K":{"x_min":0,"x_max":658,"ha":658,"o":"m 14 366 q 16 404 28 430 q 39 456 58 457 q 71 458 81 448 q 92 439 97 423 q 102 408 104 393 q 107 379 107 367 q 108 324 98 8 q 98 4 116 20 q 134 35 167 64 q 199 93 238 125 q 276 158 323 194 q 370 230 409 254 q 526 325 588 325 q 599 325 606 317 q 613 309 610 298 q 607 287 593 279 q 543 252 464 199 q 384 145 305 84 q 229 26 164 -39 q 162 -42 180 -59 q 199 -76 236 -101 q 272 -127 318 -154 q 364 -181 426 -208 q 487 -234 546 -249 q 606 -266 661 -274 q 717 -282 755 -283 q 794 -285 830 -280 q 866 -276 886 -271 q 905 -267 925 -258 q 944 -249 948 -247 q 952 -244 958 -240 q 978 -227 997 -232 q 1009 -236 1015 -249 q 1021 -263 1015 -274 q 1005 -297 979 -317 q 952 -337 908 -352 q 863 -367 806 -374 q 750 -381 673 -376 q 596 -370 512 -351 q 298 -303 151 -180 q 124 -157 93 -124 q 87 -288 87 -303 q 87 -376 61 -396 q 42 -411 26 -388 q 8 -364 6 -313 q -2 -164 2 16 q 7 228 14 366 z"},"R":{"x_min":0,"x_max":1658,"ha":1658,"o":"m 993 -226 q 982 -341 970 -371 q 961 -394 953 -399 q 945 -404 922 -405 q 896 -406 885 -401 q 874 -396 870 -376 q 859 -321 862 -163 q 716 -163 641 -93 q 622 -75 623 -61 q 627 -38 667 -52 q 703 -64 753 -70 q 804 -77 836 -77 l 868 -78 q 869 53 875 144 q 877 169 887 191 q 898 212 913 226 q 928 240 940 248 q 952 256 963 261 q 968 263 974 264 q 980 266 989 262 q 998 258 1005 248 q 1012 237 1016 212 q 1020 186 1018 149 l 1006 -72 q 1011 -73 1023 -72 q 1036 -72 1084 -66 q 1133 -59 1196 -46 q 1292 -25 1377 18 q 1462 62 1512 116 q 1562 171 1556 221 q 1554 236 1544 252 q 1534 269 1514 287 q 1493 305 1465 321 q 1437 338 1396 351 q 1356 364 1309 373 q 1262 382 1201 383 q 1139 384 1072 378 q 1006 371 923 352 q 841 334 752 304 q 436 197 224 -58 q 116 -191 58 -330 q 48 -356 48 -356 q 48 -357 47 -358 q 47 -359 44 -363 q 42 -366 39 -369 q 37 -371 32 -373 q 28 -374 22 -373 q 19 -373 18 -373 q 17 -373 13 -371 q 9 -370 8 -369 q 7 -367 4 -364 q 2 -361 1 -357 q 0 -353 0 -347 q 0 -341 2 -333 q 11 -288 30 -239 q 49 -189 79 -136 q 109 -83 147 -30 q 186 23 236 76 q 286 129 343 178 q 401 227 471 271 q 541 316 618 352 q 694 388 785 416 q 875 443 971 458 q 1059 472 1139 475 q 1218 478 1279 472 q 1341 465 1394 451 q 1447 437 1486 418 q 1524 399 1555 377 q 1586 355 1606 332 q 1626 310 1640 288 q 1653 265 1659 248 q 1664 230 1665 216 q 1666 185 1651 148 q 1637 112 1604 71 q 1571 31 1524 -5 q 1477 -42 1408 -74 q 1338 -106 1257 -125 q 1179 -143 1101 -154 q 1151 -218 1234 -263 q 1318 -308 1409 -326 q 1471 -338 1527 -335 q 1584 -331 1621 -309 q 1643 -297 1641 -308 q 1640 -323 1611 -348 q 1576 -378 1531 -392 q 1484 -407 1418 -408 q 1351 -409 1306 -399 q 1221 -382 1136 -336 q 1052 -289 993 -226 z"},"T":{"x_min":0,"x_max":619,"ha":619,"o":"m 398 461 q 401 504 433 508 q 450 509 461 498 q 471 487 476 462 q 476 459 476 458 q 567 456 652 461 q 737 466 802 473 q 867 479 901 479 q 917 479 930 476 q 943 473 955 466 q 967 459 970 446 q 973 434 968 415 q 964 401 947 391 q 929 381 904 376 q 879 371 855 369 q 832 367 807 367 q 791 367 741 369 q 692 370 616 372 q 541 374 486 375 q 501 217 502 58 q 506 -245 499 -301 q 498 -312 493 -323 q 488 -334 479 -345 q 471 -356 456 -361 q 441 -367 423 -366 q 417 -366 409 -363 q 402 -361 392 -354 q 382 -347 376 -336 q 371 -324 368 -307 q 365 -290 371 -266 q 379 -229 388 -125 q 397 -21 398 83 q 401 216 399 377 q 361 377 325 377 q 289 377 254 376 q 220 376 190 375 q 160 374 135 374 q 109 373 92 372 q 74 372 64 371 q 53 371 53 371 q 3 374 1 394 q -1 406 13 419 q 27 432 52 441 q 79 451 181 458 q 283 464 398 461 z"},"P":{"x_min":0,"x_max":1681,"ha":1681,"o":"m 49 -375 q 48 -376 48 -377 q 47 -378 45 -382 q 43 -386 40 -388 q 37 -391 33 -392 q 28 -394 23 -393 q 23 -393 22 -393 q 19 -392 17 -392 q 15 -391 11 -389 q 7 -388 6 -385 q 4 -383 2 -378 q -1 -373 1 -367 q 2 -361 2 -352 q 12 -307 31 -258 q 50 -208 80 -155 q 109 -102 148 -49 q 186 4 236 57 q 287 110 344 159 q 401 207 471 252 q 542 296 618 332 q 695 368 785 396 q 876 424 971 439 q 1060 453 1139 456 q 1219 459 1280 453 q 1341 446 1394 432 q 1448 418 1486 399 q 1524 381 1556 358 q 1587 336 1607 313 q 1627 291 1640 268 q 1654 246 1660 228 q 1666 211 1666 197 q 1667 166 1652 129 q 1637 92 1604 52 q 1571 12 1524 -25 q 1478 -61 1408 -93 q 1339 -125 1258 -144 q 1192 -160 1127 -170 q 1062 -179 1031 -181 l 998 -183 q 997 -202 995 -230 q 993 -259 986 -315 q 978 -371 971 -390 q 961 -413 953 -418 q 946 -423 922 -424 q 897 -425 886 -420 q 874 -416 871 -396 q 859 -339 863 -183 q 717 -183 642 -112 q 622 -94 624 -80 q 627 -57 667 -71 q 703 -83 754 -89 q 804 -96 837 -97 l 869 -97 q 869 34 876 124 q 877 150 888 172 q 898 193 914 207 q 929 221 941 229 q 952 237 963 242 q 969 244 975 245 q 981 246 990 242 q 999 239 1006 228 q 1012 218 1016 192 q 1021 167 1019 129 q 1006 -92 1006 -92 q 1012 -92 1024 -91 q 1036 -91 1085 -84 q 1134 -78 1196 -64 q 1293 -44 1378 -1 q 1463 42 1512 97 q 1562 152 1557 202 q 1555 217 1545 233 q 1534 250 1514 268 q 1494 286 1466 302 q 1437 319 1397 332 q 1357 345 1309 354 q 1262 363 1201 364 q 1140 365 1073 358 q 1006 352 924 333 q 841 314 753 285 q 642 247 543 191 q 444 134 375 73 q 306 13 248 -52 q 189 -116 154 -173 q 118 -231 94 -276 q 69 -322 59 -348 z"},"|":{"x_min":0,"x_max":117,"ha":117,"o":"m 24 -404 q 18 -403 13 -399 q 8 -395 7 -391 q 3 -381 8 27 q 12 297 15 368 q 18 439 28 448 q 45 465 56 454 q 67 444 71 408 q 74 369 71 3 q 68 -363 64 -382 q 57 -411 24 -404 z"},"t":{"x_min":0,"x_max":157,"ha":157,"o":"m 23 236 q 24 248 26 257 q 35 311 53 332 q 71 353 89 351 q 107 348 118 325 q 129 302 124 259 q 122 247 121 234 l 152 234 q 166 234 165 209 q 165 183 151 183 l 114 183 q 87 -27 81 -178 q 79 -201 63 -209 q 46 -218 31 -213 q 6 -205 2 -168 q -4 -123 1 -17 q 7 88 17 185 l -9 185 q -24 186 -23 211 q -23 236 -8 236 z"},"M":{"x_min":0,"x_max":1186,"ha":1186,"o":"m 338 242 q 374 201 411 150 q 448 98 473 59 q 498 20 523 -16 q 547 -51 569 -71 q 591 -92 611 -94 q 629 -96 654 -83 q 678 -69 704 -47 q 731 -24 762 10 q 793 44 821 78 q 848 111 879 153 q 911 196 933 226 q 954 257 979 294 q 1004 331 1014 346 q 1024 361 1036 378 q 1039 383 1039 384 q 1073 434 1097 436 q 1111 437 1124 435 q 1137 433 1148 424 q 1159 416 1159 403 q 1158 397 1144 256 q 1129 116 1114 -51 q 1100 -217 1100 -289 q 1100 -304 1100 -311 q 1099 -318 1099 -328 q 1098 -338 1096 -342 q 1093 -346 1090 -350 q 1086 -355 1080 -356 q 1074 -358 1066 -358 q 1039 -358 1028 -353 q 1016 -348 1007 -332 q 991 -301 984 -111 q 981 -19 1014 233 q 1011 227 1006 216 q 1000 205 981 172 q 962 140 941 109 q 921 78 891 36 q 861 -6 831 -41 q 802 -77 765 -111 q 729 -146 694 -168 q 660 -190 622 -200 q 584 -211 550 -203 q 534 -199 506 -175 q 478 -150 450 -117 q 421 -84 395 -52 q 368 -20 352 2 l 336 24 q 336 -92 329 -181 q 326 -222 324 -248 q 321 -274 317 -296 q 313 -317 309 -328 q 304 -339 297 -347 q 289 -354 280 -356 q 272 -358 258 -359 q 216 -359 209 -314 q 202 -268 214 -147 q 217 -113 219 -94 q 226 6 244 132 q 238 141 228 155 q 218 169 188 208 q 158 247 132 280 q 105 313 74 348 q 42 384 21 402 q 2 419 1 434 q -1 448 14 454 q 29 460 61 454 q 110 443 180 393 q 249 343 338 242 z"},"g":{"x_min":0,"x_max":285,"ha":285,"o":"m 89 -142 q 108 -119 123 -86 q 138 -53 139 -24 q 140 -16 136 -10 q 132 -4 125 -6 q 116 -8 104 -23 q 85 -47 76 -80 q 66 -114 67 -141 q 67 -151 74 -152 q 80 -154 89 -142 z m 147 -142 q 123 -186 97 -202 q 79 -213 54 -214 q 30 -215 11 -203 q -24 -177 -29 -118 q -32 -72 -11 -28 q 9 16 43 42 q 58 54 77 60 q 96 65 111 64 q 127 63 139 57 q 153 50 163 39 q 171 47 179 50 q 204 59 221 50 q 238 41 246 19 q 258 -18 257 -70 q 256 -123 244 -184 q 219 -310 160 -356 q 127 -382 82 -377 q 38 -372 17 -339 q 8 -326 7 -311 q 6 -296 14 -283 q 25 -272 39 -273 q 53 -273 66 -284 q 76 -292 88 -290 q 99 -289 109 -282 q 119 -276 124 -268 q 139 -244 147 -142 z"},"y":{"x_min":0,"x_max":318,"ha":318,"o":"m 189 -78 q 178 -123 142 -148 q 124 -159 103 -163 q 83 -166 63 -159 q 38 -149 20 -118 q 2 -87 1 -48 q -2 22 22 56 q 32 69 47 76 q 63 82 76 78 q 89 73 97 59 q 104 45 102 31 q 99 6 101 -28 q 103 -62 106 -78 q 109 -92 120 -94 q 131 -97 142 -82 q 146 -77 150 -69 q 154 -61 158 -49 q 163 -38 166 -30 q 168 -22 174 -6 q 179 11 181 17 q 195 57 219 66 q 244 75 260 66 q 277 57 285 36 q 297 -2 296 -54 q 295 -107 283 -168 q 258 -294 199 -340 q 166 -366 121 -361 q 77 -356 56 -323 q 48 -309 46 -294 q 45 -279 54 -267 q 64 -256 79 -257 q 93 -258 105 -268 q 115 -276 127 -274 q 138 -273 148 -267 q 158 -261 163 -252 q 174 -236 180 -187 q 187 -138 189 -89 q 189 -79 189 -78 z"},"@":{"x_min":0,"x_max":1119,"ha":1119,"o":"m 443 1 q 459 11 481 31 q 503 51 518 69 q 548 107 545 113 q 544 116 539 116 q 518 121 482 104 q 446 87 414 60 q 382 33 374 11 q 362 -26 387 -23 q 406 -22 443 1 z m 446 -345 q 363 -333 291 -301 q 218 -268 168 -219 q 113 -165 87 -94 q 62 -23 68 50 q 73 123 111 197 q 148 271 213 330 q 282 392 366 425 q 451 458 535 459 q 619 459 701 429 q 783 398 846 337 q 891 294 913 253 q 936 212 946 156 q 952 122 949 91 q 945 59 936 29 q 927 -1 910 -26 q 894 -52 874 -72 q 854 -93 831 -107 q 807 -121 782 -127 q 757 -133 731 -130 q 704 -127 679 -113 q 655 -100 620 -54 q 586 -9 586 10 q 586 28 577 27 q 566 27 522 -14 q 458 -72 407 -89 q 356 -107 313 -85 q 257 -57 264 24 q 268 67 299 112 q 330 157 376 186 q 403 203 422 208 q 441 214 479 216 q 517 217 536 214 q 554 211 581 197 q 605 185 617 182 q 629 180 639 185 q 656 194 684 188 q 713 182 727 167 q 740 152 742 121 q 744 89 736 33 l 729 -15 l 755 -15 q 788 -15 816 14 q 844 42 856 86 q 868 130 859 172 q 844 237 795 288 q 746 338 671 367 q 620 387 538 387 q 457 387 406 367 q 353 347 305 311 q 257 274 226 231 q 184 175 170 132 q 156 89 156 27 q 157 -18 161 -39 q 165 -59 179 -86 q 211 -145 274 -188 q 337 -230 419 -247 q 479 -260 577 -258 q 675 -255 741 -239 q 805 -224 861 -199 q 918 -173 949 -145 q 979 -117 973 -97 q 968 -83 974 -71 q 979 -58 990 -53 q 1001 -48 1015 -50 q 1029 -52 1040 -63 q 1061 -86 1049 -132 q 1037 -179 1002 -211 q 947 -260 852 -296 q 758 -332 649 -345 q 540 -358 446 -345 z"},"p":{"x_min":0,"x_max":289,"ha":289,"o":"m 109 -18 q 101 -34 98 -57 q 96 -81 101 -96 q 105 -112 119 -114 q 132 -116 142 -103 q 156 -85 158 -57 q 160 -29 151 -14 q 143 1 130 -1 q 117 -2 109 -18 z m 80 -167 q 64 -302 61 -394 q 59 -417 43 -425 q 26 -434 11 -429 q -14 -421 -18 -384 q -26 -327 -17 -195 q -7 -63 4 2 q 13 55 31 76 q 48 97 67 95 q 77 94 86 84 q 96 74 100 57 l 101 58 q 116 71 136 77 q 157 83 177 81 q 198 79 218 65 q 237 51 249 26 q 267 -13 260 -65 q 253 -118 225 -149 q 206 -170 178 -179 q 151 -188 124 -185 q 98 -181 80 -167 z"},"X":{"x_min":0,"x_max":958,"ha":958,"o":"m 433 19 q 217 212 118 334 q 69 396 73 436 q 76 456 91 457 q 101 458 110 451 q 201 383 543 105 q 819 318 943 391 q 978 412 1024 410 q 1058 408 1058 396 q 1058 391 1052 385 q 949 294 618 44 q 1063 -317 1096 -337 q 1127 -357 1124 -378 q 1120 -399 1084 -402 q 1023 -408 920 -355 q 854 -322 741 -236 q 628 -151 502 -42 q 347 -158 219 -251 q 91 -344 66 -359 q 46 -372 30 -375 q 15 -378 8 -373 q 2 -368 1 -359 q -1 -350 7 -337 q 14 -324 28 -312 q 168 -190 433 19 z"},"*":{"x_min":0,"x_max":272,"ha":272,"o":"m 103 283 q 103 288 103 291 q 103 291 113 352 q 113 355 115 357 q 117 359 120 359 q 123 359 125 357 q 127 354 127 351 q 131 324 132 289 q 132 289 132 287 q 133 286 133 284 q 136 287 137 288 q 186 327 186 327 q 191 332 196 327 q 201 322 196 317 q 180 294 158 268 q 154 264 154 264 q 157 264 159 263 q 221 256 221 256 q 223 256 226 254 q 228 252 228 249 q 228 246 226 244 q 223 242 221 242 q 194 238 159 234 q 158 234 156 234 q 154 234 153 234 q 153 234 154 233 q 155 232 155 231 q 194 183 194 183 q 197 181 197 177 q 197 173 194 170 q 192 167 188 167 q 183 167 181 169 q 159 186 133 209 q 133 209 132 210 q 132 210 131 211 q 131 210 131 208 l 123 146 q 123 142 120 139 q 117 137 113 137 q 109 137 106 140 q 103 143 103 147 q 101 174 99 208 q 53 169 53 169 q 50 167 46 167 q 42 167 39 170 q 36 173 36 177 q 36 181 39 183 q 56 205 78 231 q 79 233 80 233 q 79 233 78 233 q 77 233 77 233 l 16 239 q 11 239 8 242 q 6 245 6 249 q 6 253 8 256 q 11 259 16 259 q 42 262 77 265 q 77 265 78 265 q 78 265 78 265 q 77 266 76 268 l 37 317 q 32 322 38 327 q 43 332 48 327 q 69 311 96 288 q 100 285 103 283 z"},"Y":{"x_min":0,"x_max":897,"ha":897,"o":"m 53 -452 q 8 -451 2 -432 q -6 -409 47 -381 q 64 -371 88 -362 q 171 -329 278 -263 q 386 -197 432 -143 q 384 -110 321 -46 q 258 18 200 92 q 143 166 99 244 q 56 323 46 378 q 35 448 59 456 q 74 462 92 440 q 102 427 107 411 q 113 391 152 331 q 191 272 246 199 q 302 126 374 50 q 446 -27 506 -70 q 558 -26 618 42 q 678 109 729 176 q 780 243 814 292 q 849 340 871 373 q 902 422 932 436 q 957 448 960 424 q 962 409 954 384 q 934 316 878 224 q 821 133 744 40 q 667 -52 572 -142 q 478 -233 387 -302 q 295 -371 206 -413 q 117 -454 53 -452 z"},"c":{"x_min":0,"x_max":284,"ha":284,"o":"m 74 -199 q 61 -194 47 -186 q 34 -178 20 -166 q 6 -153 -4 -134 q -13 -115 -16 -93 q -18 -67 -12 -42 q -7 -17 3 -1 q 18 23 37 41 q 56 59 75 68 q 94 77 110 81 q 126 85 141 85 q 161 85 178 78 q 194 71 204 60 q 213 49 218 36 q 223 24 222 12 q 221 1 214 -7 q 202 -19 189 -18 q 178 -16 174 -11 q 170 -6 169 1 q 168 7 165 9 q 153 16 127 2 q 107 -8 92 -35 q 77 -63 88 -89 q 96 -111 112 -122 q 127 -134 146 -135 q 164 -136 181 -131 q 199 -127 214 -117 q 237 -104 266 -72 q 294 -39 316 -7 q 321 -1 329 1 q 338 3 345 -2 q 352 -7 354 -15 q 356 -24 351 -31 q 327 -64 290 -106 q 253 -147 221 -171 q 201 -184 179 -193 q 157 -202 129 -206 q 101 -209 74 -199 z"},"!":{"x_min":0,"x_max":189,"ha":189,"o":"m 36 -422 q 13 -407 8 -386 q 2 -366 13 -344 q 26 -320 49 -309 q 72 -298 93 -301 q 114 -304 129 -321 q 145 -338 144 -364 q 144 -384 134 -401 q 123 -418 108 -426 q 92 -434 72 -434 q 52 -434 36 -422 z m 41 -267 q 28 -258 22 -231 q 16 -203 13 -146 q 11 -88 11 27 q 10 361 43 427 q 55 451 73 457 q 91 463 107 449 q 123 434 129 406 q 137 376 137 141 q 137 -94 130 -172 q 123 -244 108 -261 q 95 -275 76 -277 q 57 -278 41 -267 z"},"/":{"x_min":0,"x_max":658,"ha":658,"o":"m 77 -374 q 66 -364 67 -346 q 67 -328 79 -313 q 91 -296 258 -19 q 355 142 409 229 q 463 317 499 372 q 536 428 550 444 q 564 459 573 458 q 590 456 592 444 q 594 422 534 311 q 486 224 314 -70 q 153 -347 139 -366 q 128 -381 108 -384 q 89 -386 77 -374 z"},"[":{"x_min":0,"x_max":234,"ha":234,"o":"m 178 449 q 202 432 182 412 q 161 389 112 385 q 106 385 99 385 l 79 385 l 84 267 q 90 149 90 -122 l 90 -393 l 122 -398 q 134 -400 141 -401 q 149 -403 156 -404 q 164 -406 168 -407 q 171 -408 175 -411 q 178 -413 180 -414 q 181 -416 182 -419 q 183 -423 182 -426 q 182 -428 182 -433 q 180 -449 171 -454 q 161 -459 121 -467 q 84 -474 70 -474 q 57 -473 44 -465 q 34 -459 30 -450 q 26 -441 24 -421 q 22 -401 19 -351 q 13 -249 8 87 q 4 306 6 367 q 7 428 16 438 q 24 448 39 452 q 54 456 96 458 q 162 461 178 449 z"},"6":{"x_min":0,"x_max":642,"ha":642,"o":"m 441 -167 q 471 -152 492 -130 q 513 -108 521 -85 q 529 -61 528 -38 q 526 -15 510 5 q 494 25 467 37 q 434 52 414 52 q 394 52 351 40 q 310 28 268 -9 q 227 -47 214 -83 q 207 -104 209 -112 q 210 -120 224 -134 q 264 -176 324 -185 q 384 -194 441 -167 z m 267 -286 q 224 -277 191 -259 q 158 -241 119 -204 q 75 -161 54 -112 q 33 -63 29 8 q 25 68 34 117 q 44 166 69 217 q 105 291 160 347 q 215 402 282 433 q 324 452 386 457 q 448 462 492 450 q 524 441 561 411 q 597 382 597 364 q 597 348 581 345 q 564 342 543 354 q 512 372 475 374 q 438 376 400 363 q 363 351 327 326 q 291 301 259 264 q 228 227 205 182 q 171 115 166 63 l 161 10 l 207 55 q 289 136 395 137 q 482 138 545 87 q 608 37 614 -38 q 619 -105 573 -173 q 554 -201 513 -231 q 472 -261 437 -273 q 402 -286 351 -289 q 301 -293 267 -286 z"},"r":{"x_min":0,"x_max":358,"ha":358,"o":"m 118 -86 q 116 -69 109 -62 q 103 -54 92 -53 q 90 -52 87 -52 q 71 -49 62 -47 q 53 -45 40 -40 q 27 -36 18 -28 q 9 -21 3 -10 q -4 2 -5 18 q -6 34 -1 50 q 3 66 16 81 q 29 96 49 104 q 72 115 96 104 q 121 92 121 73 q 121 62 115 52 q 109 43 106 36 q 102 29 105 22 q 108 18 127 16 q 146 14 169 13 q 193 13 200 12 q 219 8 227 -8 q 236 -23 231 -44 q 217 -107 223 -122 q 229 -137 245 -139 q 262 -141 281 -128 q 319 -101 382 -8 q 387 -1 395 1 q 403 2 411 -2 q 418 -7 419 -16 q 421 -24 416 -31 q 387 -75 352 -115 q 317 -155 287 -173 q 250 -196 213 -193 q 179 -190 151 -159 q 123 -128 118 -86 z"},"2":{"x_min":0,"x_max":654,"ha":654,"o":"m 44 -263 q 31 -257 32 -221 q 33 -186 47 -164 q 62 -143 100 -112 q 138 -81 250 1 q 344 69 392 113 q 441 157 462 192 q 484 227 489 269 q 494 309 481 332 q 468 356 436 368 q 390 385 321 367 q 252 349 200 308 q 167 281 133 236 q 99 192 88 159 q 77 128 62 119 q 48 111 36 127 q 24 139 28 166 q 32 193 44 223 q 56 254 78 287 q 100 320 126 345 q 185 404 277 436 q 369 469 437 454 q 516 437 552 389 q 589 341 583 260 q 578 177 511 91 q 444 4 306 -96 l 227 -154 l 361 -169 q 417 -175 473 -178 q 529 -182 553 -181 q 600 -178 615 -185 q 630 -193 626 -217 q 625 -224 617 -235 q 609 -246 599 -253 q 582 -266 542 -268 q 503 -270 316 -270 q 208 -270 129 -268 q 49 -266 44 -263 z"},"{":{"x_min":0,"x_max":291,"ha":291,"o":"m 239 446 q 250 433 244 421 q 237 408 216 400 q 183 388 166 368 q 149 348 141 311 q 132 274 128 206 q 122 97 109 67 q 101 48 101 41 q 101 34 108 27 q 128 12 137 -42 q 146 -96 146 -195 q 146 -303 153 -342 q 161 -381 184 -402 q 194 -409 199 -419 q 205 -428 204 -434 q 201 -451 177 -451 q 153 -450 131 -432 q 108 -413 96 -389 q 85 -364 79 -322 q 73 -279 69 -195 q 63 -82 53 -36 q 43 11 23 11 q 6 11 6 25 q 5 38 21 72 q 33 97 39 124 q 44 151 48 199 q 50 234 55 271 q 60 307 65 324 q 72 345 85 366 q 98 387 114 404 q 130 421 149 434 q 167 447 184 453 q 201 459 216 458 q 231 457 239 446 z"},"9":{"x_min":0,"x_max":642,"ha":642,"o":"m 284 127 q 312 133 348 159 q 383 186 407 220 q 432 253 432 276 q 432 296 411 314 q 391 332 357 344 q 324 355 289 354 q 199 354 145 294 q 119 267 113 241 q 107 215 119 187 q 133 156 173 134 q 212 113 244 119 q 257 122 284 127 z m 141 -278 q 122 -272 97 -254 q 72 -236 55 -217 q 39 -198 42 -189 q 48 -173 62 -170 q 77 -167 91 -179 q 109 -195 168 -198 q 207 -201 226 -197 q 244 -194 276 -179 q 328 -154 374 -103 q 419 -53 447 9 q 474 70 474 124 l 474 156 l 441 120 q 427 106 402 88 q 378 71 357 61 q 326 44 305 40 q 284 36 240 36 q 180 37 144 51 q 108 66 72 106 q 44 135 36 159 q 27 184 28 231 q 28 292 70 346 q 112 401 183 436 q 215 451 237 454 q 259 458 312 458 q 369 458 389 454 q 409 450 447 430 q 514 394 556 335 q 597 276 610 196 q 624 110 597 19 q 570 -72 509 -146 q 449 -219 368 -258 q 319 -282 254 -288 q 189 -293 141 -278 z"}," ":{"x_min":0,"x_max":293,"ha":293,"o":""},"I":{"x_min":0,"x_max":514,"ha":514,"o":"m 256 378 q 256 382 205 382 q 154 383 95 383 q 36 383 23 386 q 7 390 2 400 q -2 410 3 420 q 9 430 18 438 q 27 446 34 447 q 82 454 205 456 q 328 458 434 456 q 539 454 586 452 q 607 451 620 436 q 633 421 627 406 q 621 391 594 389 q 556 386 491 385 q 427 384 388 383 q 349 382 349 378 q 351 336 340 23 q 329 -289 329 -294 q 339 -294 376 -293 q 412 -293 434 -293 q 457 -293 486 -295 q 516 -297 535 -302 q 565 -309 584 -334 q 603 -358 589 -371 q 579 -380 552 -378 q 496 -372 384 -373 q 273 -374 188 -376 q 103 -379 48 -382 q 27 -383 23 -368 q 18 -349 47 -328 q 58 -321 72 -314 q 114 -295 241 -295 q 241 -287 242 -233 q 243 -180 244 -99 q 246 -18 246 43 q 246 82 246 120 q 247 159 247 184 q 248 209 249 245 q 251 281 251 293 q 252 305 254 340 q 256 376 256 378 z"},"H":{"x_min":0,"x_max":1114,"ha":1114,"o":"m 235 388 q 236 412 244 429 q 252 446 265 452 q 278 458 292 456 q 306 454 319 438 q 333 423 342 397 q 366 326 368 -80 q 369 -117 369 -117 l 949 -92 q 953 -46 960 26 q 967 97 983 232 q 999 366 1008 399 q 1022 444 1050 451 q 1069 456 1079 441 q 1084 433 1083 424 q 1073 336 1056 -98 q 1057 -98 1059 -99 q 1061 -99 1065 -101 q 1069 -102 1073 -105 q 1077 -107 1080 -112 q 1083 -117 1083 -123 q 1083 -132 1077 -139 q 1071 -146 1066 -148 l 1059 -150 q 1051 -315 1048 -370 q 1047 -392 1019 -397 q 992 -402 965 -389 q 938 -376 939 -354 l 949 -168 l 369 -196 q 368 -202 367 -214 q 366 -225 363 -254 q 359 -283 356 -306 q 353 -329 348 -351 q 344 -372 341 -377 q 335 -383 318 -389 q 302 -394 284 -396 q 266 -398 253 -388 q 241 -379 243 -358 q 246 -343 251 -196 q 235 -197 210 -199 q 186 -201 129 -203 q 73 -205 41 -204 q 23 -203 12 -196 q 2 -188 1 -177 q 0 -166 9 -154 q 17 -143 32 -139 q 104 -121 250 -117 q 248 -72 245 -2 q 242 67 238 204 q 234 342 235 388 z"},"4":{"x_min":0,"x_max":610,"ha":610,"o":"m 489 -281 q 481 -270 477 -257 q 474 -243 473 -215 q 472 -187 472 -116 l 472 28 l 326 28 l 180 28 l 152 0 q 126 -26 99 -33 q 72 -40 50 -26 q 21 -7 30 24 q 39 54 84 83 q 126 109 206 309 q 241 400 259 430 q 278 459 296 457 q 303 456 306 454 q 309 452 311 445 q 314 437 313 423 q 313 409 313 384 q 312 330 294 262 q 277 194 249 143 q 243 130 240 120 q 237 110 240 109 q 246 105 359 103 l 472 102 l 472 167 q 472 244 482 322 q 492 401 504 425 q 519 457 538 458 q 557 460 570 431 q 578 413 580 344 q 582 274 582 67 l 582 -267 l 563 -285 q 522 -322 489 -281 z"},"~":{"x_min":0,"x_max":478,"ha":478,"o":"m 99 -47 q 57 -38 29 -8 q 0 23 7 51 q 13 73 32 74 q 51 74 73 53 q 99 28 130 28 q 160 28 219 53 q 301 87 355 82 q 409 78 428 34 q 438 10 433 -9 q 428 -28 413 -29 q 399 -31 381 -14 q 368 0 355 4 q 342 7 322 3 q 301 -2 260 -17 q 197 -41 163 -47 q 128 -53 99 -47 z"},"D":{"x_min":0,"x_max":1417,"ha":1417,"o":"m 861 173 q 858 100 844 -58 q 830 -217 820 -239 q 812 -259 806 -263 q 799 -267 779 -268 q 758 -269 748 -265 q 739 -261 736 -244 q 730 -193 732 -49 q 735 95 740 169 q 742 190 751 208 q 759 227 772 238 q 785 250 795 257 q 805 263 814 268 q 819 270 824 271 q 828 272 836 269 q 844 266 850 257 q 856 248 859 226 q 862 205 861 173 z m 1089 -159 q 1325 55 1258 242 q 1251 262 1238 280 q 1226 299 1201 318 q 1177 338 1145 351 q 1113 364 1064 371 q 1015 378 956 375 q 896 372 814 354 q 732 336 636 304 q 360 211 180 -15 q 91 -127 46 -240 l 41 -253 q 41 -255 39 -258 q 38 -261 32 -265 q 27 -269 19 -268 q 19 -268 19 -268 q 16 -268 14 -267 q 12 -267 8 -264 q 4 -262 3 -259 q 2 -256 1 -249 q -1 -243 2 -234 q 13 -184 36 -130 q 59 -75 98 -15 q 137 44 186 102 q 236 159 303 213 q 370 268 446 312 q 523 357 618 391 q 714 425 817 442 q 908 456 986 457 q 1063 458 1119 448 q 1176 438 1220 418 q 1264 398 1293 373 q 1322 348 1341 318 q 1361 287 1371 258 q 1380 229 1383 197 q 1389 133 1374 68 q 1358 2 1326 -58 q 1293 -117 1242 -171 q 1191 -225 1128 -267 q 1066 -309 988 -338 q 911 -368 828 -379 q 772 -387 711 -379 q 649 -370 604 -350 q 559 -331 544 -307 q 533 -289 531 -274 q 530 -260 536 -253 q 543 -246 557 -247 q 571 -248 589 -259 q 613 -274 656 -282 q 698 -291 752 -288 q 807 -286 864 -274 q 922 -262 982 -232 q 1042 -203 1089 -159 z"},"^":{"x_min":0,"x_max":274,"ha":274,"o":"m 10 288 q 4 296 6 306 q 9 316 22 340 q 53 396 81 427 q 108 458 124 458 q 142 458 165 434 q 188 409 211 366 q 246 298 218 287 q 206 283 187 299 q 168 314 146 348 l 123 384 l 99 348 q 64 296 45 283 q 26 270 10 288 z"},"0":{"x_min":0,"x_max":583,"ha":583,"o":"m 294 -164 q 337 -142 373 -86 q 409 -29 424 39 q 428 58 430 93 q 431 127 429 157 q 427 205 414 245 q 401 284 382 310 q 362 336 337 350 q 311 364 284 363 q 257 363 227 346 q 198 329 172 297 q 136 253 122 199 q 108 144 104 73 q 99 -12 131 -77 q 161 -141 205 -164 q 249 -187 294 -164 z m 209 -264 q 127 -235 78 -146 q 28 -58 28 60 q 28 143 51 220 q 75 296 118 353 q 161 409 216 437 q 252 454 290 458 q 328 461 363 450 q 398 438 430 415 q 462 392 488 355 q 513 319 531 273 q 541 247 546 218 q 552 188 553 168 q 554 147 555 114 q 556 76 552 37 q 548 -3 539 -27 q 508 -117 455 -179 q 402 -241 337 -264 q 273 -286 209 -264 z"},"F":{"x_min":0,"x_max":1311,"ha":1311,"o":"m 1346 384 q 1287 374 1210 367 q 1132 361 1077 356 q 1021 351 934 333 q 848 315 753 283 q 436 176 225 -79 q 117 -212 58 -351 l 49 -377 q 48 -377 48 -379 q 47 -380 45 -384 q 43 -387 40 -390 q 37 -392 33 -394 q 28 -396 23 -394 q 23 -394 22 -394 q 19 -394 17 -393 q 15 -393 11 -391 q 7 -389 6 -387 q 4 -384 2 -380 q -1 -376 1 -369 q 2 -363 2 -354 q 12 -309 31 -260 q 50 -212 79 -160 q 109 -108 147 -56 q 185 -5 235 46 q 285 97 342 144 q 399 191 469 234 q 539 277 616 311 q 692 346 782 373 q 873 400 968 416 q 1066 431 1197 446 q 1328 460 1370 469 q 1408 477 1452 491 q 1497 505 1522 513 q 1548 521 1556 519 q 1587 513 1585 489 q 1583 465 1552 444 q 1534 432 1509 422 q 1484 412 1450 404 q 1416 397 1398 393 q 1380 389 1346 384 z m 1184 -101 q 1066 -109 998 -106 q 997 -124 995 -153 q 993 -182 986 -238 q 978 -294 971 -313 q 961 -336 953 -341 q 946 -346 922 -347 q 897 -348 886 -343 q 874 -338 871 -318 q 866 -293 864 -240 q 862 -187 862 -146 l 863 -106 q 843 -106 827 -106 q 811 -107 797 -110 q 783 -112 774 -114 q 766 -115 754 -120 q 742 -124 738 -126 q 734 -127 721 -134 q 708 -141 706 -142 q 697 -147 682 -145 q 667 -144 662 -136 q 658 -131 658 -123 q 658 -116 661 -106 q 663 -97 673 -87 q 682 -76 697 -67 q 718 -54 743 -44 q 768 -34 790 -30 q 811 -26 829 -23 q 848 -21 858 -20 l 869 -19 q 869 111 876 202 q 877 227 888 249 q 898 270 914 284 q 929 298 941 306 q 952 314 963 319 q 969 321 975 322 q 981 323 990 320 q 999 316 1006 306 q 1012 295 1016 270 q 1021 244 1019 207 q 1006 -14 1006 -14 q 1016 -14 1033 -13 q 1049 -13 1102 -12 q 1155 -12 1199 -14 q 1236 -16 1247 -40 q 1258 -62 1238 -81 q 1220 -98 1184 -101 z"},"`":{"x_min":0,"x_max":154,"ha":154,"o":"m 109 325 q 106 318 101 313 q 97 308 93 308 q 87 308 64 338 q 42 368 23 400 q 3 432 6 437 q 8 442 15 448 q 23 454 31 457 q 47 461 59 453 q 71 444 83 414 q 99 374 105 353 q 112 332 109 325 z"},"k":{"x_min":0,"x_max":251,"ha":251,"o":"m 84 -87 q 81 -133 79 -176 q 78 -199 62 -207 q 45 -216 30 -211 q 5 -203 1 -166 q -7 -108 3 43 q 14 195 25 259 q 34 313 52 334 q 69 355 88 353 q 106 351 117 328 q 128 304 123 262 q 102 109 93 14 q 119 30 140 51 q 161 71 182 101 q 186 107 197 101 q 208 94 216 86 q 222 79 223 69 q 225 59 220 52 q 196 21 171 3 q 146 -15 112 -29 q 133 -43 147 -60 q 161 -76 174 -100 q 178 -107 189 -132 q 199 -157 202 -162 q 206 -170 209 -176 q 213 -181 220 -188 q 227 -194 233 -194 q 238 -194 244 -192 q 251 -191 256 -190 q 262 -189 267 -188 q 272 -187 274 -188 q 277 -189 277 -193 q 272 -231 231 -245 q 211 -251 188 -243 q 165 -235 143 -211 q 122 -187 112 -152 q 107 -133 90 -99 q 89 -97 88 -93 q 86 -89 84 -87 z"},"u":{"x_min":0,"x_max":355,"ha":355,"o":"m 188 -121 q 174 -161 152 -186 q 130 -210 96 -217 q 58 -224 31 -202 q 4 -180 1 -133 q -1 -101 2 -37 q 4 27 11 46 q 26 84 57 79 q 78 77 94 61 q 109 46 108 28 q 108 28 106 8 q 104 -13 104 -21 q 103 -28 102 -48 q 101 -68 101 -79 q 101 -90 101 -105 q 101 -119 102 -129 q 103 -138 104 -143 q 112 -164 137 -116 q 149 -92 163 -49 q 177 -7 188 25 q 198 57 204 62 q 211 68 224 70 q 238 72 251 69 q 259 67 268 59 q 277 52 277 44 q 278 32 276 12 q 274 -8 270 -42 q 266 -76 264 -107 q 264 -115 265 -121 q 266 -128 269 -131 q 273 -134 279 -132 q 285 -129 293 -119 q 334 -72 373 -10 q 377 -2 386 0 q 395 2 403 -3 q 411 -8 412 -17 q 414 -26 409 -33 q 357 -117 335 -145 q 313 -173 286 -188 q 255 -204 232 -198 q 210 -191 198 -170 q 186 -148 188 -121 z"},"]":{"x_min":0,"x_max":234,"ha":234,"o":"m 18 -464 q -5 -447 14 -427 q 36 -404 85 -401 q 91 -400 97 -400 l 118 -400 l 112 -282 q 107 -164 107 107 l 107 378 l 75 383 q 63 385 55 386 q 48 387 40 389 q 33 391 29 392 q 25 393 22 396 q 18 398 17 399 q 16 401 15 404 q 14 407 14 410 q 14 413 15 418 q 17 433 26 439 q 36 444 76 452 q 113 458 126 458 q 140 458 153 450 q 162 444 166 435 q 171 426 173 406 q 175 386 178 336 q 183 234 188 -102 q 192 -321 191 -382 q 189 -443 181 -453 q 173 -464 158 -468 q 142 -471 101 -473 q 34 -476 18 -464 z"},"U":{"x_min":0,"x_max":1216,"ha":1216,"o":"m 1140 -351 q 1130 -374 1122 -379 q 1115 -384 1091 -384 q 1073 -386 1056 -384 q 1038 -383 1020 -376 q 1002 -369 997 -356 q 989 -339 988 -237 q 987 -134 989 -34 q 992 65 997 77 q 988 64 976 46 q 963 27 929 -16 q 894 -59 858 -98 q 821 -138 766 -185 q 711 -232 654 -267 q 598 -302 528 -328 q 457 -353 387 -357 q 321 -362 263 -348 q 206 -333 163 -305 q 121 -276 88 -236 q 54 -197 35 -148 q 16 -100 7 -47 q -2 6 1 61 q 6 144 28 222 q 49 301 86 362 q 122 423 168 449 q 179 455 191 457 q 203 459 213 455 q 223 451 228 442 q 233 433 230 415 q 226 397 212 374 q 211 371 204 357 q 198 343 188 316 q 177 289 166 256 q 156 224 146 183 q 137 142 131 102 q 126 62 128 18 q 129 -26 139 -62 q 151 -107 170 -141 q 189 -176 209 -198 q 228 -219 257 -233 q 285 -247 306 -254 q 326 -260 358 -262 q 389 -263 406 -262 q 423 -262 453 -259 q 453 -259 454 -259 q 508 -255 568 -228 q 627 -201 679 -161 q 731 -121 782 -71 q 833 -21 874 28 q 914 77 948 123 q 981 169 1001 200 q 1020 231 1027 246 q 1033 258 1044 291 q 1054 324 1063 340 q 1077 363 1097 382 q 1117 400 1129 405 q 1133 407 1137 408 q 1141 408 1148 408 q 1154 407 1160 403 q 1166 399 1171 391 q 1177 383 1181 370 q 1185 357 1187 336 q 1189 314 1188 287 q 1182 156 1166 -84 q 1151 -324 1140 -351 z"},"o":{"x_min":0,"x_max":258,"ha":258,"o":"m 70 -22 q 62 -39 61 -64 q 59 -89 64 -107 q 69 -124 83 -127 q 97 -129 107 -116 q 120 -97 121 -66 q 122 -35 113 -19 q 104 -2 91 -3 q 78 -4 70 -22 z m 2 -59 q 2 -21 19 13 q 35 46 59 66 q 75 78 95 83 q 115 88 136 85 q 157 82 178 66 q 198 50 211 22 q 231 -21 225 -78 q 219 -135 192 -168 q 171 -193 141 -202 q 110 -211 82 -203 q 53 -196 36 -174 q 1 -131 2 -59 z"},"N":{"x_min":0,"x_max":987,"ha":987,"o":"m 58 418 q 62 408 70 391 q 78 374 105 323 q 132 271 159 221 q 187 171 228 103 q 268 35 308 -23 q 348 -81 396 -140 q 443 -199 488 -240 q 532 -281 579 -306 q 626 -331 667 -329 q 712 -327 749 -299 q 786 -272 810 -229 q 834 -186 852 -129 q 870 -72 879 -11 q 889 49 894 113 q 900 177 901 231 q 902 284 902 331 q 901 378 900 402 q 898 426 898 432 q 896 453 905 456 q 911 458 921 456 q 931 453 933 443 q 935 437 938 420 q 941 403 946 365 q 951 327 954 286 q 958 244 960 188 q 962 132 958 79 q 955 29 949 -19 q 942 -67 930 -117 q 918 -167 902 -210 q 886 -253 861 -292 q 837 -332 807 -360 q 777 -388 736 -407 q 696 -425 649 -428 q 608 -431 566 -422 q 524 -413 487 -395 q 450 -377 414 -353 q 378 -329 348 -301 q 318 -274 291 -246 q 264 -219 244 -194 q 224 -168 209 -149 q 194 -129 187 -118 l 179 -106 q 174 -178 144 -290 q 129 -345 111 -376 q 107 -383 104 -388 q 102 -393 98 -396 q 94 -400 93 -402 q 91 -405 87 -407 q 83 -409 81 -410 q 80 -411 74 -411 q 68 -412 67 -412 q 65 -412 57 -412 q 49 -412 47 -412 q 23 -412 10 -403 q -3 -393 4 -371 q 5 -369 13 -344 q 22 -318 26 -304 q 30 -289 36 -266 q 43 -242 46 -224 q 56 -168 66 -100 q 76 -31 81 10 l 86 51 q 47 125 23 224 q -1 324 1 399 q 1 424 19 429 q 43 436 58 418 z"},"+":{"x_min":0,"x_max":448,"ha":448,"o":"m 185 244 q 198 255 212 246 q 229 235 235 83 q 253 84 272 84 q 324 84 349 82 q 374 81 385 75 q 397 70 401 59 q 407 38 396 31 q 379 21 280 19 q 262 19 237 19 q 237 2 237 -17 q 238 -68 236 -93 q 234 -118 229 -129 q 223 -141 212 -144 q 191 -151 184 -140 q 173 -123 172 -23 q 172 -6 172 19 q 78 19 49 21 q 19 24 12 32 q 1 45 10 59 q 21 76 172 82 q 172 177 175 207 q 177 237 185 244 z"},"G":{"x_min":0,"x_max":927,"ha":927,"o":"m 583 232 q 591 218 583 207 q 576 195 548 169 q 532 156 526 137 q 520 118 529 101 q 538 84 562 78 q 621 62 690 97 q 751 128 779 178 q 814 241 772 294 q 753 317 718 336 q 661 368 595 380 q 529 392 462 382 q 394 372 332 344 q 271 316 218 264 q 164 212 131 143 q 111 103 105 60 q 99 17 107 -22 q 114 -62 136 -99 q 158 -135 190 -165 q 222 -194 268 -216 q 313 -238 366 -249 q 419 -260 484 -258 q 550 -257 620 -240 q 665 -229 718 -207 q 771 -185 781 -176 q 780 -166 780 -151 q 779 -135 779 -93 q 778 -51 779 -33 q 780 7 819 36 q 849 58 873 54 q 892 51 888 27 q 876 -33 874 -115 q 872 -196 876 -264 q 880 -332 888 -399 q 890 -412 880 -410 q 862 -408 836 -378 q 823 -363 813 -346 q 804 -329 798 -305 q 791 -282 789 -267 l 787 -252 q 755 -278 683 -301 q 611 -324 514 -333 q 418 -342 319 -322 q 285 -314 250 -300 q 215 -287 179 -266 q 143 -244 113 -217 q 83 -190 58 -155 q 33 -120 19 -79 q 5 -37 1 12 q -3 62 11 118 q 19 157 43 200 q 67 242 102 283 q 138 323 186 359 q 235 395 290 421 q 346 447 412 461 q 478 474 546 471 q 617 467 676 446 q 736 426 775 395 q 814 364 838 325 q 863 286 868 244 q 872 203 858 162 q 844 120 811 85 q 778 51 737 28 q 696 4 656 -4 q 617 -13 578 -11 q 539 -9 509 3 q 479 16 459 40 q 438 64 435 96 q 429 151 473 201 q 507 238 544 246 q 572 251 583 232 z"},"q":{"x_min":0,"x_max":299,"ha":299,"o":"m 139 -92 q 147 -76 149 -53 q 152 -30 147 -14 q 142 1 129 3 q 115 6 105 -8 q 92 -26 90 -54 q 88 -82 97 -96 q 104 -111 118 -110 q 131 -108 139 -92 z m 180 43 q 191 69 204 80 q 217 91 231 89 q 248 87 260 64 q 271 41 266 -2 q 262 -26 256 -74 q 249 -122 246 -143 q 243 -163 239 -202 q 234 -242 232 -268 q 229 -293 227 -329 q 224 -364 223 -401 q 222 -423 205 -432 q 188 -441 173 -436 q 148 -428 144 -391 q 140 -373 141 -332 q 141 -292 143 -257 q 146 -222 150 -166 q 149 -166 147 -168 q 132 -181 111 -187 q 91 -193 70 -191 q 49 -189 30 -175 q 11 -161 -2 -136 q -19 -98 -12 -45 q -6 7 23 38 q 44 61 74 70 q 104 79 132 73 q 160 67 176 48 q 178 46 180 43 z"},"d":{"x_min":0,"x_max":299,"ha":299,"o":"m 80 -140 q 101 -119 119 -88 q 138 -57 143 -29 q 145 -21 142 -14 q 139 -8 132 -8 q 122 -10 108 -23 q 87 -44 73 -77 q 60 -109 58 -135 q 57 -146 63 -148 q 69 -150 80 -140 z m 159 47 q 169 169 178 222 q 187 276 205 297 q 223 318 241 316 q 259 313 270 290 q 282 267 276 224 q 239 -47 233 -213 q 232 -236 215 -245 q 198 -253 183 -248 q 158 -240 153 -203 q 150 -177 151 -126 q 116 -183 80 -200 q 63 -209 36 -207 q 10 -205 -6 -191 q -37 -161 -34 -102 q -32 -55 -6 -14 q 19 26 56 49 q 83 64 109 64 q 136 63 153 52 q 157 49 159 47 z"},"1":{"x_min":0,"x_max":387,"ha":387,"o":"m 42 -270 q 28 -256 28 -249 q 28 -237 56 -221 q 84 -206 116 -199 l 159 -191 l 152 -85 q 147 -11 152 110 q 158 231 169 270 q 173 283 168 284 q 163 286 136 279 q 113 275 100 276 q 86 277 73 283 q 56 291 50 298 q 44 306 49 319 q 53 331 69 347 q 84 363 113 388 q 146 416 165 430 q 183 444 199 452 q 214 459 225 459 q 235 458 248 451 q 264 443 273 435 q 282 427 288 416 q 293 405 293 386 q 293 367 290 342 q 287 318 279 277 q 266 206 257 58 q 248 -89 253 -138 l 259 -189 l 296 -198 q 323 -205 341 -217 q 360 -229 360 -241 q 360 -244 353 -251 q 346 -257 337 -263 q 321 -273 252 -279 q 184 -284 118 -282 q 52 -279 42 -270 z"},"5":{"x_min":0,"x_max":718,"ha":718,"o":"m 203 -286 q 159 -278 118 -258 q 77 -237 52 -211 q 28 -186 28 -162 q 28 -147 35 -135 q 43 -123 53 -118 q 64 -112 76 -114 q 88 -116 97 -126 q 125 -158 198 -170 q 272 -182 352 -166 q 481 -142 546 -82 q 598 -35 584 11 q 569 58 486 83 q 426 100 350 90 q 274 81 224 50 q 191 30 177 30 q 163 31 152 52 q 144 67 143 98 q 142 129 147 220 q 150 279 154 328 q 159 377 163 386 q 170 405 192 416 q 215 426 262 432 q 308 439 397 443 q 552 451 603 456 q 634 459 647 458 q 660 456 669 447 q 694 423 676 395 q 658 366 608 351 q 595 347 538 343 q 481 339 414 338 l 251 333 l 252 239 q 252 207 253 190 q 254 173 256 163 q 257 153 259 150 q 262 148 266 149 q 286 157 330 163 q 374 169 406 169 q 484 169 547 146 q 610 123 648 81 q 686 38 690 -15 q 694 -67 667 -116 q 640 -164 591 -201 q 542 -238 472 -262 q 402 -286 324 -289 q 245 -293 203 -286 z"}}}
